<svg width="1280" height="832" viewBox="0 0 1280 832" fill="none" xmlns="http://www.w3.org/2000/svg">
<g clip-path="url(#clip0_93_637)">
<rect width="1280" height="832" fill="#0A0A0C"/>
<ellipse cx="152.89" cy="664.562" rx="101.89" ry="101.905" fill="#106BFF"/>
<ellipse cx="254.78" cy="575.905" rx="101.89" ry="101.905" fill="#106BFF"/>
<ellipse cx="263.95" cy="693.095" rx="101.89" ry="101.905" fill="#106BFF"/>
<ellipse cx="358.708" cy="700.228" rx="76.4175" ry="76.4286" fill="#106BFF"/>
<ellipse cx="384.18" cy="604.438" rx="91.7011" ry="91.7143" fill="#106BFF"/>
<ellipse cx="442.258" cy="682.905" rx="81.5121" ry="81.5238" fill="#106BFF"/>
<g filter="url(#filter0_d_93_637)">
<rect x="452" y="235" width="376" height="447" rx="12" fill="#1A1A1C" fill-opacity="0.5" shape-rendering="crispEdges"/>
<rect x="452.5" y="235.5" width="375" height="446" rx="11.5" stroke="#2A2A2C" stroke-opacity="0.5" stroke-linecap="square" shape-rendering="crispEdges"/>
<path d="M530.376 339.252C528.528 339.252 526.872 338.952 525.408 338.352C523.944 337.752 522.768 336.864 521.88 335.688C521.016 334.512 520.56 333.096 520.512 331.44H527.064C527.16 332.376 527.484 333.096 528.036 333.6C528.588 334.08 529.308 334.32 530.196 334.32C531.108 334.32 531.828 334.116 532.356 333.708C532.884 333.276 533.148 332.688 533.148 331.944C533.148 331.32 532.932 330.804 532.5 330.396C532.092 329.988 531.576 329.652 530.952 329.388C530.352 329.124 529.488 328.824 528.36 328.488C526.728 327.984 525.396 327.48 524.364 326.976C523.332 326.472 522.444 325.728 521.7 324.744C520.956 323.76 520.584 322.476 520.584 320.892C520.584 318.54 521.436 316.704 523.14 315.384C524.844 314.04 527.064 313.368 529.8 313.368C532.584 313.368 534.828 314.04 536.532 315.384C538.236 316.704 539.148 318.552 539.268 320.928H532.608C532.56 320.112 532.26 319.476 531.708 319.02C531.156 318.54 530.448 318.3 529.584 318.3C528.84 318.3 528.24 318.504 527.784 318.912C527.328 319.296 527.1 319.86 527.1 320.604C527.1 321.42 527.484 322.056 528.252 322.512C529.02 322.968 530.22 323.46 531.852 323.988C533.484 324.54 534.804 325.068 535.812 325.572C536.844 326.076 537.732 326.808 538.476 327.768C539.22 328.728 539.592 329.964 539.592 331.476C539.592 332.916 539.22 334.224 538.476 335.4C537.756 336.576 536.7 337.512 535.308 338.208C533.916 338.904 532.272 339.252 530.376 339.252ZM562.316 328.632C562.316 329.208 562.28 329.808 562.208 330.432H548.276C548.372 331.68 548.768 332.64 549.464 333.312C550.184 333.96 551.06 334.284 552.092 334.284C553.628 334.284 554.696 333.636 555.296 332.34H561.848C561.512 333.66 560.9 334.848 560.012 335.904C559.148 336.96 558.056 337.788 556.736 338.388C555.416 338.988 553.94 339.288 552.308 339.288C550.34 339.288 548.588 338.868 547.052 338.028C545.516 337.188 544.316 335.988 543.452 334.428C542.588 332.868 542.156 331.044 542.156 328.956C542.156 326.868 542.576 325.044 543.416 323.484C544.28 321.924 545.48 320.724 547.016 319.884C548.552 319.044 550.316 318.624 552.308 318.624C554.252 318.624 555.98 319.032 557.492 319.848C559.004 320.664 560.18 321.828 561.02 323.34C561.884 324.852 562.316 326.616 562.316 328.632ZM556.016 327.012C556.016 325.956 555.656 325.116 554.936 324.492C554.216 323.868 553.316 323.556 552.236 323.556C551.204 323.556 550.328 323.856 549.608 324.456C548.912 325.056 548.48 325.908 548.312 327.012H556.016ZM571.969 328.956C571.969 326.868 572.389 325.044 573.229 323.484C574.093 321.924 575.281 320.724 576.793 319.884C578.329 319.044 580.081 318.624 582.049 318.624C584.569 318.624 586.669 319.284 588.349 320.604C590.053 321.924 591.169 323.784 591.697 326.184H585.145C584.593 324.648 583.525 323.88 581.941 323.88C580.813 323.88 579.913 324.324 579.241 325.212C578.569 326.076 578.233 327.324 578.233 328.956C578.233 330.588 578.569 331.848 579.241 332.736C579.913 333.6 580.813 334.032 581.941 334.032C583.525 334.032 584.593 333.264 585.145 331.728H591.697C591.169 334.08 590.053 335.928 588.349 337.272C586.645 338.616 584.545 339.288 582.049 339.288C580.081 339.288 578.329 338.868 576.793 338.028C575.281 337.188 574.093 335.988 573.229 334.428C572.389 332.868 571.969 331.044 571.969 328.956ZM604.134 339.288C602.166 339.288 600.39 338.868 598.806 338.028C597.246 337.188 596.01 335.988 595.098 334.428C594.21 332.868 593.766 331.044 593.766 328.956C593.766 326.892 594.222 325.08 595.134 323.52C596.046 321.936 597.294 320.724 598.878 319.884C600.462 319.044 602.238 318.624 604.206 318.624C606.174 318.624 607.95 319.044 609.534 319.884C611.118 320.724 612.366 321.936 613.278 323.52C614.19 325.08 614.646 326.892 614.646 328.956C614.646 331.02 614.178 332.844 613.242 334.428C612.33 335.988 611.07 337.188 609.462 338.028C607.878 338.868 606.102 339.288 604.134 339.288ZM604.134 333.96C605.31 333.96 606.306 333.528 607.122 332.664C607.962 331.8 608.382 330.564 608.382 328.956C608.382 327.348 607.974 326.112 607.158 325.248C606.366 324.384 605.382 323.952 604.206 323.952C603.006 323.952 602.01 324.384 601.218 325.248C600.426 326.088 600.03 327.324 600.03 328.956C600.03 330.564 600.414 331.8 601.182 332.664C601.974 333.528 602.958 333.96 604.134 333.96ZM630.152 318.696C632.504 318.696 634.376 319.464 635.768 321C637.184 322.512 637.892 324.6 637.892 327.264V339H631.772V328.092C631.772 326.748 631.424 325.704 630.728 324.96C630.032 324.216 629.096 323.844 627.92 323.844C626.744 323.844 625.808 324.216 625.112 324.96C624.416 325.704 624.068 326.748 624.068 328.092V339H617.912V318.912H624.068V321.576C624.692 320.688 625.532 319.992 626.588 319.488C627.644 318.96 628.832 318.696 630.152 318.696ZM654.41 318.696C656.762 318.696 658.634 319.464 660.026 321C661.442 322.512 662.15 324.6 662.15 327.264V339H656.03V328.092C656.03 326.748 655.682 325.704 654.986 324.96C654.29 324.216 653.354 323.844 652.178 323.844C651.002 323.844 650.066 324.216 649.37 324.96C648.674 325.704 648.326 326.748 648.326 328.092V339H642.17V318.912H648.326V321.576C648.95 320.688 649.79 319.992 650.846 319.488C651.902 318.96 653.09 318.696 654.41 318.696ZM685.363 328.632C685.363 329.208 685.327 329.808 685.255 330.432H671.323C671.419 331.68 671.815 332.64 672.511 333.312C673.231 333.96 674.107 334.284 675.139 334.284C676.675 334.284 677.743 333.636 678.343 332.34H684.895C684.559 333.66 683.947 334.848 683.059 335.904C682.195 336.96 681.103 337.788 679.783 338.388C678.463 338.988 676.987 339.288 675.355 339.288C673.387 339.288 671.635 338.868 670.099 338.028C668.563 337.188 667.363 335.988 666.499 334.428C665.635 332.868 665.203 331.044 665.203 328.956C665.203 326.868 665.623 325.044 666.463 323.484C667.327 321.924 668.527 320.724 670.063 319.884C671.599 319.044 673.363 318.624 675.355 318.624C677.299 318.624 679.027 319.032 680.539 319.848C682.051 320.664 683.227 321.828 684.067 323.34C684.931 324.852 685.363 326.616 685.363 328.632ZM679.063 327.012C679.063 325.956 678.703 325.116 677.983 324.492C677.263 323.868 676.363 323.556 675.283 323.556C674.251 323.556 673.375 323.856 672.655 324.456C671.959 325.056 671.527 325.908 671.359 327.012H679.063ZM687.387 328.956C687.387 326.868 687.807 325.044 688.647 323.484C689.511 321.924 690.699 320.724 692.211 319.884C693.747 319.044 695.499 318.624 697.467 318.624C699.987 318.624 702.087 319.284 703.767 320.604C705.471 321.924 706.587 323.784 707.115 326.184H700.563C700.011 324.648 698.943 323.88 697.359 323.88C696.231 323.88 695.331 324.324 694.659 325.212C693.987 326.076 693.651 327.324 693.651 328.956C693.651 330.588 693.987 331.848 694.659 332.736C695.331 333.6 696.231 334.032 697.359 334.032C698.943 334.032 700.011 333.264 700.563 331.728H707.115C706.587 334.08 705.471 335.928 703.767 337.272C702.063 338.616 699.963 339.288 697.467 339.288C695.499 339.288 693.747 338.868 692.211 338.028C690.699 337.188 689.511 335.988 688.647 334.428C687.807 332.868 687.387 331.044 687.387 328.956ZM721.604 333.78V339H718.472C716.24 339 714.5 338.46 713.252 337.38C712.004 336.276 711.38 334.488 711.38 332.016V324.024H708.932V318.912H711.38V314.016H717.536V318.912H721.568V324.024H717.536V332.088C717.536 332.688 717.68 333.12 717.968 333.384C718.256 333.648 718.736 333.78 719.408 333.78H721.604ZM743.969 328.632C743.969 329.208 743.933 329.808 743.861 330.432H729.929C730.025 331.68 730.421 332.64 731.117 333.312C731.837 333.96 732.713 334.284 733.745 334.284C735.281 334.284 736.349 333.636 736.949 332.34H743.501C743.165 333.66 742.553 334.848 741.665 335.904C740.801 336.96 739.709 337.788 738.389 338.388C737.069 338.988 735.593 339.288 733.961 339.288C731.993 339.288 730.241 338.868 728.705 338.028C727.169 337.188 725.969 335.988 725.105 334.428C724.241 332.868 723.809 331.044 723.809 328.956C723.809 326.868 724.229 325.044 725.069 323.484C725.933 321.924 727.133 320.724 728.669 319.884C730.205 319.044 731.969 318.624 733.961 318.624C735.905 318.624 737.633 319.032 739.145 319.848C740.657 320.664 741.833 321.828 742.673 323.34C743.537 324.852 743.969 326.616 743.969 328.632ZM737.669 327.012C737.669 325.956 737.309 325.116 736.589 324.492C735.869 323.868 734.969 323.556 733.889 323.556C732.857 323.556 731.981 323.856 731.261 324.456C730.565 325.056 730.133 325.908 729.965 327.012H737.669ZM753.372 322.26C754.092 321.156 754.992 320.292 756.072 319.668C757.152 319.02 758.352 318.696 759.672 318.696V325.212H757.98C756.444 325.212 755.292 325.548 754.524 326.22C753.756 326.868 753.372 328.02 753.372 329.676V339H747.216V318.912H753.372V322.26Z" fill="#FAFAFC"/>
<rect x="500" y="417" width="280" height="45" rx="6" fill="#2A2A2C" fill-opacity="0.5"/>
<path d="M526.352 435.278V438.54H529.908V439.59H526.352V442.95H530.328V444H525.078V434.228H530.328V435.278H526.352ZM541.482 436.188C542.079 436.188 542.611 436.314 543.078 436.566C543.544 436.809 543.913 437.177 544.184 437.672C544.454 438.167 544.59 438.769 544.59 439.478V444H543.33V439.66C543.33 438.895 543.138 438.311 542.756 437.91C542.382 437.499 541.874 437.294 541.23 437.294C540.567 437.294 540.04 437.509 539.648 437.938C539.256 438.358 539.06 438.969 539.06 439.772V444H537.8V439.66C537.8 438.895 537.608 438.311 537.226 437.91C536.852 437.499 536.344 437.294 535.7 437.294C535.037 437.294 534.51 437.509 534.118 437.938C533.726 438.358 533.53 438.969 533.53 439.772V444H532.256V436.328H533.53V437.434C533.782 437.033 534.118 436.725 534.538 436.51C534.967 436.295 535.438 436.188 535.952 436.188C536.596 436.188 537.165 436.333 537.66 436.622C538.154 436.911 538.523 437.336 538.766 437.896C538.98 437.355 539.335 436.935 539.83 436.636C540.324 436.337 540.875 436.188 541.482 436.188ZM546.204 440.136C546.204 439.352 546.362 438.666 546.68 438.078C546.997 437.481 547.431 437.019 547.982 436.692C548.542 436.365 549.162 436.202 549.844 436.202C550.516 436.202 551.099 436.347 551.594 436.636C552.088 436.925 552.457 437.289 552.7 437.728V436.328H553.988V444H552.7V442.572C552.448 443.02 552.07 443.393 551.566 443.692C551.071 443.981 550.492 444.126 549.83 444.126C549.148 444.126 548.532 443.958 547.982 443.622C547.431 443.286 546.997 442.815 546.68 442.208C546.362 441.601 546.204 440.911 546.204 440.136ZM552.7 440.15C552.7 439.571 552.583 439.067 552.35 438.638C552.116 438.209 551.799 437.882 551.398 437.658C551.006 437.425 550.572 437.308 550.096 437.308C549.62 437.308 549.186 437.42 548.794 437.644C548.402 437.868 548.089 438.195 547.856 438.624C547.622 439.053 547.506 439.557 547.506 440.136C547.506 440.724 547.622 441.237 547.856 441.676C548.089 442.105 548.402 442.437 548.794 442.67C549.186 442.894 549.62 443.006 550.096 443.006C550.572 443.006 551.006 442.894 551.398 442.67C551.799 442.437 552.116 442.105 552.35 441.676C552.583 441.237 552.7 440.729 552.7 440.15ZM556.799 435.082C556.556 435.082 556.351 434.998 556.183 434.83C556.015 434.662 555.931 434.457 555.931 434.214C555.931 433.971 556.015 433.766 556.183 433.598C556.351 433.43 556.556 433.346 556.799 433.346C557.032 433.346 557.228 433.43 557.387 433.598C557.555 433.766 557.639 433.971 557.639 434.214C557.639 434.457 557.555 434.662 557.387 434.83C557.228 434.998 557.032 435.082 556.799 435.082ZM557.415 436.328V444H556.141V436.328H557.415ZM560.86 433.64V444H559.586V433.64H560.86Z" fill="#DADADC"/>
<rect x="500" y="474" width="280" height="45" rx="6" fill="#2A2A2C" fill-opacity="0.5"/>
<path d="M534.976 491.312V501H533.702V493.776L530.482 501H529.586L526.352 493.762V501H525.078V491.312H526.45L530.034 499.32L533.618 491.312H534.976ZM540.483 501.126C539.764 501.126 539.111 500.963 538.523 500.636C537.944 500.309 537.487 499.847 537.151 499.25C536.824 498.643 536.661 497.943 536.661 497.15C536.661 496.366 536.829 495.675 537.165 495.078C537.51 494.471 537.977 494.009 538.565 493.692C539.153 493.365 539.811 493.202 540.539 493.202C541.267 493.202 541.925 493.365 542.513 493.692C543.101 494.009 543.563 494.467 543.899 495.064C544.244 495.661 544.417 496.357 544.417 497.15C544.417 497.943 544.239 498.643 543.885 499.25C543.539 499.847 543.068 500.309 542.471 500.636C541.873 500.963 541.211 501.126 540.483 501.126ZM540.483 500.006C540.94 500.006 541.369 499.899 541.771 499.684C542.172 499.469 542.494 499.147 542.737 498.718C542.989 498.289 543.115 497.766 543.115 497.15C543.115 496.534 542.993 496.011 542.751 495.582C542.508 495.153 542.191 494.835 541.799 494.63C541.407 494.415 540.982 494.308 540.525 494.308C540.058 494.308 539.629 494.415 539.237 494.63C538.854 494.835 538.546 495.153 538.313 495.582C538.079 496.011 537.963 496.534 537.963 497.15C537.963 497.775 538.075 498.303 538.299 498.732C538.532 499.161 538.84 499.483 539.223 499.698C539.605 499.903 540.025 500.006 540.483 500.006ZM547.646 494.378V498.9C547.646 499.273 547.725 499.539 547.884 499.698C548.042 499.847 548.318 499.922 548.71 499.922H549.648V501H548.5C547.79 501 547.258 500.837 546.904 500.51C546.549 500.183 546.372 499.647 546.372 498.9V494.378H545.378V493.328H546.372V491.396H547.646V493.328H549.648V494.378H547.646ZM554.448 497.136C554.448 496.352 554.606 495.666 554.924 495.078C555.241 494.481 555.675 494.019 556.226 493.692C556.786 493.365 557.411 493.202 558.102 493.202C558.699 493.202 559.254 493.342 559.768 493.622C560.281 493.893 560.673 494.252 560.944 494.7V490.64H562.232V501H560.944V499.558C560.692 500.015 560.318 500.393 559.824 500.692C559.329 500.981 558.75 501.126 558.088 501.126C557.406 501.126 556.786 500.958 556.226 500.622C555.675 500.286 555.241 499.815 554.924 499.208C554.606 498.601 554.448 497.911 554.448 497.136ZM560.944 497.15C560.944 496.571 560.827 496.067 560.594 495.638C560.36 495.209 560.043 494.882 559.642 494.658C559.25 494.425 558.816 494.308 558.34 494.308C557.864 494.308 557.43 494.42 557.038 494.644C556.646 494.868 556.333 495.195 556.1 495.624C555.866 496.053 555.75 496.557 555.75 497.136C555.75 497.724 555.866 498.237 556.1 498.676C556.333 499.105 556.646 499.437 557.038 499.67C557.43 499.894 557.864 500.006 558.34 500.006C558.816 500.006 559.25 499.894 559.642 499.67C560.043 499.437 560.36 499.105 560.594 498.676C560.827 498.237 560.944 497.729 560.944 497.15ZM571.385 496.87C571.385 497.113 571.371 497.369 571.343 497.64H565.211C565.257 498.396 565.514 498.989 565.981 499.418C566.457 499.838 567.031 500.048 567.703 500.048C568.253 500.048 568.711 499.922 569.075 499.67C569.448 499.409 569.709 499.063 569.859 498.634H571.231C571.025 499.371 570.615 499.973 569.999 500.44C569.383 500.897 568.617 501.126 567.703 501.126C566.975 501.126 566.321 500.963 565.743 500.636C565.173 500.309 564.725 499.847 564.399 499.25C564.072 498.643 563.909 497.943 563.909 497.15C563.909 496.357 564.067 495.661 564.385 495.064C564.702 494.467 565.145 494.009 565.715 493.692C566.293 493.365 566.956 493.202 567.703 493.202C568.431 493.202 569.075 493.361 569.635 493.678C570.195 493.995 570.624 494.434 570.923 494.994C571.231 495.545 571.385 496.17 571.385 496.87ZM570.069 496.604C570.069 496.119 569.961 495.703 569.747 495.358C569.532 495.003 569.238 494.737 568.865 494.56C568.501 494.373 568.095 494.28 567.647 494.28C567.003 494.28 566.452 494.485 565.995 494.896C565.547 495.307 565.29 495.876 565.225 496.604H570.069ZM578.073 494.742C578.325 494.303 578.698 493.939 579.193 493.65C579.697 493.351 580.28 493.202 580.943 493.202C581.624 493.202 582.24 493.365 582.791 493.692C583.351 494.019 583.789 494.481 584.107 495.078C584.424 495.666 584.583 496.352 584.583 497.136C584.583 497.911 584.424 498.601 584.107 499.208C583.789 499.815 583.351 500.286 582.791 500.622C582.24 500.958 581.624 501.126 580.943 501.126C580.289 501.126 579.711 500.981 579.207 500.692C578.712 500.393 578.334 500.025 578.073 499.586V504.64H576.799V493.328H578.073V494.742ZM583.281 497.136C583.281 496.557 583.164 496.053 582.931 495.624C582.697 495.195 582.38 494.868 581.979 494.644C581.587 494.42 581.153 494.308 580.677 494.308C580.21 494.308 579.776 494.425 579.375 494.658C578.983 494.882 578.665 495.213 578.423 495.652C578.189 496.081 578.073 496.581 578.073 497.15C578.073 497.729 578.189 498.237 578.423 498.676C578.665 499.105 578.983 499.437 579.375 499.67C579.776 499.894 580.21 500.006 580.677 500.006C581.153 500.006 581.587 499.894 581.979 499.67C582.38 499.437 582.697 499.105 582.931 498.676C583.164 498.237 583.281 497.724 583.281 497.136ZM585.784 497.136C585.784 496.352 585.942 495.666 586.26 495.078C586.577 494.481 587.011 494.019 587.562 493.692C588.122 493.365 588.742 493.202 589.424 493.202C590.096 493.202 590.679 493.347 591.174 493.636C591.668 493.925 592.037 494.289 592.28 494.728V493.328H593.568V501H592.28V499.572C592.028 500.02 591.65 500.393 591.146 500.692C590.651 500.981 590.072 501.126 589.41 501.126C588.728 501.126 588.112 500.958 587.562 500.622C587.011 500.286 586.577 499.815 586.26 499.208C585.942 498.601 585.784 497.911 585.784 497.136ZM592.28 497.15C592.28 496.571 592.163 496.067 591.93 495.638C591.696 495.209 591.379 494.882 590.978 494.658C590.586 494.425 590.152 494.308 589.676 494.308C589.2 494.308 588.766 494.42 588.374 494.644C587.982 494.868 587.669 495.195 587.436 495.624C587.202 496.053 587.086 496.557 587.086 497.136C587.086 497.724 587.202 498.237 587.436 498.676C587.669 499.105 587.982 499.437 588.374 499.67C588.766 499.894 589.2 500.006 589.676 500.006C590.152 500.006 590.586 499.894 590.978 499.67C591.379 499.437 591.696 499.105 591.93 498.676C592.163 498.237 592.28 497.729 592.28 497.15ZM598.437 501.126C597.849 501.126 597.321 501.028 596.855 500.832C596.388 500.627 596.019 500.347 595.749 499.992C595.478 499.628 595.329 499.213 595.301 498.746H596.617C596.654 499.129 596.831 499.441 597.149 499.684C597.475 499.927 597.9 500.048 598.423 500.048C598.908 500.048 599.291 499.941 599.571 499.726C599.851 499.511 599.991 499.241 599.991 498.914C599.991 498.578 599.841 498.331 599.543 498.172C599.244 498.004 598.782 497.841 598.157 497.682C597.587 497.533 597.121 497.383 596.757 497.234C596.402 497.075 596.094 496.847 595.833 496.548C595.581 496.24 595.455 495.839 595.455 495.344C595.455 494.952 595.571 494.593 595.805 494.266C596.038 493.939 596.369 493.683 596.799 493.496C597.228 493.3 597.718 493.202 598.269 493.202C599.118 493.202 599.804 493.417 600.327 493.846C600.849 494.275 601.129 494.863 601.167 495.61H599.893C599.865 495.209 599.701 494.887 599.403 494.644C599.113 494.401 598.721 494.28 598.227 494.28C597.769 494.28 597.405 494.378 597.135 494.574C596.864 494.77 596.729 495.027 596.729 495.344C596.729 495.596 596.808 495.806 596.967 495.974C597.135 496.133 597.34 496.263 597.583 496.366C597.835 496.459 598.18 496.567 598.619 496.688C599.169 496.837 599.617 496.987 599.963 497.136C600.308 497.276 600.602 497.491 600.845 497.78C601.097 498.069 601.227 498.447 601.237 498.914C601.237 499.334 601.12 499.712 600.887 500.048C600.653 500.384 600.322 500.65 599.893 500.846C599.473 501.033 598.987 501.126 598.437 501.126ZM605.751 501.126C605.163 501.126 604.636 501.028 604.169 500.832C603.702 500.627 603.334 500.347 603.063 499.992C602.792 499.628 602.643 499.213 602.615 498.746H603.931C603.968 499.129 604.146 499.441 604.463 499.684C604.79 499.927 605.214 500.048 605.737 500.048C606.222 500.048 606.605 499.941 606.885 499.726C607.165 499.511 607.305 499.241 607.305 498.914C607.305 498.578 607.156 498.331 606.857 498.172C606.558 498.004 606.096 497.841 605.471 497.682C604.902 497.533 604.435 497.383 604.071 497.234C603.716 497.075 603.408 496.847 603.147 496.548C602.895 496.24 602.769 495.839 602.769 495.344C602.769 494.952 602.886 494.593 603.119 494.266C603.352 493.939 603.684 493.683 604.113 493.496C604.542 493.3 605.032 493.202 605.583 493.202C606.432 493.202 607.118 493.417 607.641 493.846C608.164 494.275 608.444 494.863 608.481 495.61H607.207C607.179 495.209 607.016 494.887 606.717 494.644C606.428 494.401 606.036 494.28 605.541 494.28C605.084 494.28 604.72 494.378 604.449 494.574C604.178 494.77 604.043 495.027 604.043 495.344C604.043 495.596 604.122 495.806 604.281 495.974C604.449 496.133 604.654 496.263 604.897 496.366C605.149 496.459 605.494 496.567 605.933 496.688C606.484 496.837 606.932 496.987 607.277 497.136C607.622 497.276 607.916 497.491 608.159 497.78C608.411 498.069 608.542 498.447 608.551 498.914C608.551 499.334 608.434 499.712 608.201 500.048C607.968 500.384 607.636 500.65 607.207 500.846C606.787 501.033 606.302 501.126 605.751 501.126ZM617.349 496.87C617.349 497.113 617.335 497.369 617.307 497.64H611.175C611.222 498.396 611.479 498.989 611.945 499.418C612.421 499.838 612.995 500.048 613.667 500.048C614.218 500.048 614.675 499.922 615.039 499.67C615.413 499.409 615.674 499.063 615.823 498.634H617.195C616.99 499.371 616.579 499.973 615.963 500.44C615.347 500.897 614.582 501.126 613.667 501.126C612.939 501.126 612.286 500.963 611.707 500.636C611.138 500.309 610.69 499.847 610.363 499.25C610.037 498.643 609.873 497.943 609.873 497.15C609.873 496.357 610.032 495.661 610.349 495.064C610.667 494.467 611.11 494.009 611.679 493.692C612.258 493.365 612.921 493.202 613.667 493.202C614.395 493.202 615.039 493.361 615.599 493.678C616.159 493.995 616.589 494.434 616.887 494.994C617.195 495.545 617.349 496.17 617.349 496.87ZM616.033 496.604C616.033 496.119 615.926 495.703 615.711 495.358C615.497 495.003 615.203 494.737 614.829 494.56C614.465 494.373 614.059 494.28 613.611 494.28C612.967 494.28 612.417 494.485 611.959 494.896C611.511 495.307 611.255 495.876 611.189 496.604H616.033Z" fill="#DADADC"/>
<rect x="500" y="543" width="280" height="45" rx="6" fill="#106BFF"/>
<path d="M597.672 570.098C597.028 570.098 596.449 569.986 595.936 569.762C595.432 569.529 595.035 569.211 594.746 568.81C594.457 568.399 594.307 567.928 594.298 567.396H595.656C595.703 567.853 595.889 568.241 596.216 568.558C596.552 568.866 597.037 569.02 597.672 569.02C598.279 569.02 598.755 568.871 599.1 568.572C599.455 568.264 599.632 567.872 599.632 567.396C599.632 567.023 599.529 566.719 599.324 566.486C599.119 566.253 598.862 566.075 598.554 565.954C598.246 565.833 597.831 565.702 597.308 565.562C596.664 565.394 596.146 565.226 595.754 565.058C595.371 564.89 595.04 564.629 594.76 564.274C594.489 563.91 594.354 563.425 594.354 562.818C594.354 562.286 594.489 561.815 594.76 561.404C595.031 560.993 595.409 560.676 595.894 560.452C596.389 560.228 596.953 560.116 597.588 560.116C598.503 560.116 599.249 560.345 599.828 560.802C600.416 561.259 600.747 561.866 600.822 562.622H599.422C599.375 562.249 599.179 561.922 598.834 561.642C598.489 561.353 598.031 561.208 597.462 561.208C596.93 561.208 596.496 561.348 596.16 561.628C595.824 561.899 595.656 562.281 595.656 562.776C595.656 563.131 595.754 563.42 595.95 563.644C596.155 563.868 596.403 564.041 596.692 564.162C596.991 564.274 597.406 564.405 597.938 564.554C598.582 564.731 599.1 564.909 599.492 565.086C599.884 565.254 600.22 565.52 600.5 565.884C600.78 566.239 600.92 566.724 600.92 567.34C600.92 567.816 600.794 568.264 600.542 568.684C600.29 569.104 599.917 569.445 599.422 569.706C598.927 569.967 598.344 570.098 597.672 570.098ZM609.795 565.87C609.795 566.113 609.781 566.369 609.753 566.64H603.621C603.667 567.396 603.924 567.989 604.391 568.418C604.867 568.838 605.441 569.048 606.113 569.048C606.663 569.048 607.121 568.922 607.485 568.67C607.858 568.409 608.119 568.063 608.269 567.634H609.641C609.435 568.371 609.025 568.973 608.409 569.44C607.793 569.897 607.027 570.126 606.113 570.126C605.385 570.126 604.731 569.963 604.153 569.636C603.583 569.309 603.135 568.847 602.809 568.25C602.482 567.643 602.319 566.943 602.319 566.15C602.319 565.357 602.477 564.661 602.795 564.064C603.112 563.467 603.555 563.009 604.125 562.692C604.703 562.365 605.366 562.202 606.113 562.202C606.841 562.202 607.485 562.361 608.045 562.678C608.605 562.995 609.034 563.434 609.333 563.994C609.641 564.545 609.795 565.17 609.795 565.87ZM608.479 565.604C608.479 565.119 608.371 564.703 608.157 564.358C607.942 564.003 607.648 563.737 607.275 563.56C606.911 563.373 606.505 563.28 606.057 563.28C605.413 563.28 604.862 563.485 604.405 563.896C603.957 564.307 603.7 564.876 603.635 565.604H608.479ZM614.733 566.15C614.733 565.357 614.892 564.666 615.209 564.078C615.526 563.481 615.965 563.019 616.525 562.692C617.094 562.365 617.743 562.202 618.471 562.202C619.414 562.202 620.188 562.431 620.795 562.888C621.411 563.345 621.817 563.98 622.013 564.792H620.641C620.51 564.325 620.254 563.957 619.871 563.686C619.498 563.415 619.031 563.28 618.471 563.28C617.743 563.28 617.155 563.532 616.707 564.036C616.259 564.531 616.035 565.235 616.035 566.15C616.035 567.074 616.259 567.788 616.707 568.292C617.155 568.796 617.743 569.048 618.471 569.048C619.031 569.048 619.498 568.917 619.871 568.656C620.244 568.395 620.501 568.021 620.641 567.536H622.013C621.808 568.32 621.397 568.95 620.781 569.426C620.165 569.893 619.395 570.126 618.471 570.126C617.743 570.126 617.094 569.963 616.525 569.636C615.965 569.309 615.526 568.847 615.209 568.25C614.892 567.653 614.733 566.953 614.733 566.15ZM627.059 570.126C626.34 570.126 625.687 569.963 625.099 569.636C624.52 569.309 624.063 568.847 623.727 568.25C623.4 567.643 623.237 566.943 623.237 566.15C623.237 565.366 623.405 564.675 623.741 564.078C624.086 563.471 624.553 563.009 625.141 562.692C625.729 562.365 626.387 562.202 627.115 562.202C627.843 562.202 628.501 562.365 629.089 562.692C629.677 563.009 630.139 563.467 630.475 564.064C630.82 564.661 630.993 565.357 630.993 566.15C630.993 566.943 630.815 567.643 630.461 568.25C630.115 568.847 629.644 569.309 629.047 569.636C628.449 569.963 627.787 570.126 627.059 570.126ZM627.059 569.006C627.516 569.006 627.945 568.899 628.347 568.684C628.748 568.469 629.07 568.147 629.313 567.718C629.565 567.289 629.691 566.766 629.691 566.15C629.691 565.534 629.569 565.011 629.327 564.582C629.084 564.153 628.767 563.835 628.375 563.63C627.983 563.415 627.558 563.308 627.101 563.308C626.634 563.308 626.205 563.415 625.813 563.63C625.43 563.835 625.122 564.153 624.889 564.582C624.655 565.011 624.539 565.534 624.539 566.15C624.539 566.775 624.651 567.303 624.875 567.732C625.108 568.161 625.416 568.483 625.799 568.698C626.181 568.903 626.601 569.006 627.059 569.006ZM636.406 562.188C637.339 562.188 638.095 562.473 638.674 563.042C639.253 563.602 639.542 564.414 639.542 565.478V570H638.282V565.66C638.282 564.895 638.091 564.311 637.708 563.91C637.325 563.499 636.803 563.294 636.14 563.294C635.468 563.294 634.931 563.504 634.53 563.924C634.138 564.344 633.942 564.955 633.942 565.758V570H632.668V562.328H633.942V563.42C634.194 563.028 634.535 562.725 634.964 562.51C635.403 562.295 635.883 562.188 636.406 562.188ZM645.361 562.188C646.294 562.188 647.05 562.473 647.629 563.042C648.208 563.602 648.497 564.414 648.497 565.478V570H647.237V565.66C647.237 564.895 647.046 564.311 646.663 563.91C646.28 563.499 645.758 563.294 645.095 563.294C644.423 563.294 643.886 563.504 643.485 563.924C643.093 564.344 642.897 564.955 642.897 565.758V570H641.623V562.328H642.897V563.42C643.149 563.028 643.49 562.725 643.919 562.51C644.358 562.295 644.838 562.188 645.361 562.188ZM657.578 565.87C657.578 566.113 657.564 566.369 657.536 566.64H651.404C651.451 567.396 651.707 567.989 652.174 568.418C652.65 568.838 653.224 569.048 653.896 569.048C654.447 569.048 654.904 568.922 655.268 568.67C655.641 568.409 655.903 568.063 656.052 567.634H657.424C657.219 568.371 656.808 568.973 656.192 569.44C655.576 569.897 654.811 570.126 653.896 570.126C653.168 570.126 652.515 569.963 651.936 569.636C651.367 569.309 650.919 568.847 650.592 568.25C650.265 567.643 650.102 566.943 650.102 566.15C650.102 565.357 650.261 564.661 650.578 564.064C650.895 563.467 651.339 563.009 651.908 562.692C652.487 562.365 653.149 562.202 653.896 562.202C654.624 562.202 655.268 562.361 655.828 562.678C656.388 562.995 656.817 563.434 657.116 563.994C657.424 564.545 657.578 565.17 657.578 565.87ZM656.262 565.604C656.262 565.119 656.155 564.703 655.94 564.358C655.725 564.003 655.431 563.737 655.058 563.56C654.694 563.373 654.288 563.28 653.84 563.28C653.196 563.28 652.645 563.485 652.188 563.896C651.74 564.307 651.483 564.876 651.418 565.604H656.262ZM658.784 566.15C658.784 565.357 658.942 564.666 659.26 564.078C659.577 563.481 660.016 563.019 660.576 562.692C661.145 562.365 661.794 562.202 662.522 562.202C663.464 562.202 664.239 562.431 664.846 562.888C665.462 563.345 665.868 563.98 666.064 564.792H664.692C664.561 564.325 664.304 563.957 663.922 563.686C663.548 563.415 663.082 563.28 662.522 563.28C661.794 563.28 661.206 563.532 660.758 564.036C660.31 564.531 660.086 565.235 660.086 566.15C660.086 567.074 660.31 567.788 660.758 568.292C661.206 568.796 661.794 569.048 662.522 569.048C663.082 569.048 663.548 568.917 663.922 568.656C664.295 568.395 664.552 568.021 664.692 567.536H666.064C665.858 568.32 665.448 568.95 664.832 569.426C664.216 569.893 663.446 570.126 662.522 570.126C661.794 570.126 661.145 569.963 660.576 569.636C660.016 569.309 659.577 568.847 659.26 568.25C658.942 567.653 658.784 566.953 658.784 566.15ZM669.318 563.378V567.9C669.318 568.273 669.397 568.539 669.556 568.698C669.714 568.847 669.99 568.922 670.382 568.922H671.32V570H670.172C669.462 570 668.93 569.837 668.576 569.51C668.221 569.183 668.044 568.647 668.044 567.9V563.378H667.05V562.328H668.044V560.396H669.318V562.328H671.32V563.378H669.318ZM679.863 565.87C679.863 566.113 679.849 566.369 679.821 566.64H673.689C673.736 567.396 673.992 567.989 674.459 568.418C674.935 568.838 675.509 569.048 676.181 569.048C676.732 569.048 677.189 568.922 677.553 568.67C677.926 568.409 678.188 568.063 678.337 567.634H679.709C679.504 568.371 679.093 568.973 678.477 569.44C677.861 569.897 677.096 570.126 676.181 570.126C675.453 570.126 674.8 569.963 674.221 569.636C673.652 569.309 673.204 568.847 672.877 568.25C672.55 567.643 672.387 566.943 672.387 566.15C672.387 565.357 672.546 564.661 672.863 564.064C673.18 563.467 673.624 563.009 674.193 562.692C674.772 562.365 675.434 562.202 676.181 562.202C676.909 562.202 677.553 562.361 678.113 562.678C678.673 562.995 679.102 563.434 679.401 563.994C679.709 564.545 679.863 565.17 679.863 565.87ZM678.547 565.604C678.547 565.119 678.44 564.703 678.225 564.358C678.01 564.003 677.716 563.737 677.343 563.56C676.979 563.373 676.573 563.28 676.125 563.28C675.481 563.28 674.93 563.485 674.473 563.896C674.025 564.307 673.768 564.876 673.703 565.604H678.547ZM682.819 563.574C683.043 563.135 683.36 562.795 683.771 562.552C684.191 562.309 684.699 562.188 685.297 562.188V563.504H684.961C683.533 563.504 682.819 564.279 682.819 565.828V570H681.545V562.328H682.819V563.574Z" fill="#FAFAFC"/>
<g clip-path="url(#clip1_93_637)">
<path d="M663.716 613.084C662.94 613.084 662.232 612.904 661.592 612.544C660.952 612.176 660.444 611.668 660.068 611.02C659.7 610.364 659.516 609.628 659.516 608.812C659.516 607.996 659.7 607.264 660.068 606.616C660.444 605.96 660.952 605.452 661.592 605.092C662.232 604.724 662.94 604.54 663.716 604.54C664.5 604.54 665.212 604.724 665.852 605.092C666.492 605.452 666.996 605.956 667.364 606.604C667.732 607.252 667.916 607.988 667.916 608.812C667.916 609.636 667.732 610.372 667.364 611.02C666.996 611.668 666.492 612.176 665.852 612.544C665.212 612.904 664.5 613.084 663.716 613.084ZM663.716 612.136C664.3 612.136 664.824 612 665.288 611.728C665.76 611.456 666.128 611.068 666.392 610.564C666.664 610.06 666.8 609.476 666.8 608.812C666.8 608.14 666.664 607.556 666.392 607.06C666.128 606.556 665.764 606.168 665.3 605.896C664.836 605.624 664.308 605.488 663.716 605.488C663.124 605.488 662.596 605.624 662.132 605.896C661.668 606.168 661.3 606.556 661.028 607.06C660.764 607.556 660.632 608.14 660.632 608.812C660.632 609.476 660.764 610.06 661.028 610.564C661.3 611.068 661.668 611.456 662.132 611.728C662.604 612 663.132 612.136 663.716 612.136ZM675.19 606.424V613H674.098V612.028C673.89 612.364 673.598 612.628 673.222 612.82C672.854 613.004 672.446 613.096 671.998 613.096C671.486 613.096 671.026 612.992 670.618 612.784C670.21 612.568 669.886 612.248 669.646 611.824C669.414 611.4 669.298 610.884 669.298 610.276V606.424H670.378V610.132C670.378 610.78 670.542 611.28 670.87 611.632C671.198 611.976 671.646 612.148 672.214 612.148C672.798 612.148 673.258 611.968 673.594 611.608C673.93 611.248 674.098 610.724 674.098 610.036V606.424H675.19ZM679.825 609.7C679.825 609.02 679.961 608.428 680.233 607.924C680.505 607.412 680.881 607.016 681.361 606.736C681.849 606.456 682.405 606.316 683.029 606.316C683.837 606.316 684.501 606.512 685.021 606.904C685.549 607.296 685.897 607.84 686.065 608.536H684.889C684.777 608.136 684.557 607.82 684.229 607.588C683.909 607.356 683.509 607.24 683.029 607.24C682.405 607.24 681.901 607.456 681.517 607.888C681.133 608.312 680.941 608.916 680.941 609.7C680.941 610.492 681.133 611.104 681.517 611.536C681.901 611.968 682.405 612.184 683.029 612.184C683.509 612.184 683.909 612.072 684.229 611.848C684.549 611.624 684.769 611.304 684.889 610.888H686.065C685.889 611.56 685.537 612.1 685.009 612.508C684.481 612.908 683.821 613.108 683.029 613.108C682.405 613.108 681.849 612.968 681.361 612.688C680.881 612.408 680.505 612.012 680.233 611.5C679.961 610.988 679.825 610.388 679.825 609.7ZM688.614 607.492C688.806 607.116 689.078 606.824 689.43 606.616C689.79 606.408 690.226 606.304 690.738 606.304V607.432H690.45C689.226 607.432 688.614 608.096 688.614 609.424V613H687.522V606.424H688.614V607.492ZM697.998 609.46C697.998 609.668 697.986 609.888 697.962 610.12H692.706C692.746 610.768 692.966 611.276 693.366 611.644C693.774 612.004 694.266 612.184 694.842 612.184C695.314 612.184 695.706 612.076 696.018 611.86C696.338 611.636 696.562 611.34 696.69 610.972H697.866C697.69 611.604 697.338 612.12 696.81 612.52C696.282 612.912 695.626 613.108 694.842 613.108C694.218 613.108 693.658 612.968 693.162 612.688C692.674 612.408 692.29 612.012 692.01 611.5C691.73 610.98 691.59 610.38 691.59 609.7C691.59 609.02 691.726 608.424 691.998 607.912C692.27 607.4 692.65 607.008 693.138 606.736C693.634 606.456 694.202 606.316 694.842 606.316C695.466 606.316 696.018 606.452 696.498 606.724C696.978 606.996 697.346 607.372 697.602 607.852C697.866 608.324 697.998 608.86 697.998 609.46ZM696.87 609.232C696.87 608.816 696.778 608.46 696.594 608.164C696.41 607.86 696.158 607.632 695.838 607.48C695.526 607.32 695.178 607.24 694.794 607.24C694.242 607.24 693.77 607.416 693.378 607.768C692.994 608.12 692.774 608.608 692.718 609.232H696.87ZM695.97 604.564L693.414 605.932V605.116L695.97 603.616V604.564ZM705.44 609.46C705.44 609.668 705.428 609.888 705.404 610.12H700.148C700.188 610.768 700.408 611.276 700.808 611.644C701.216 612.004 701.708 612.184 702.284 612.184C702.756 612.184 703.148 612.076 703.46 611.86C703.78 611.636 704.004 611.34 704.132 610.972H705.308C705.132 611.604 704.78 612.12 704.252 612.52C703.724 612.912 703.068 613.108 702.284 613.108C701.66 613.108 701.1 612.968 700.604 612.688C700.116 612.408 699.732 612.012 699.452 611.5C699.172 610.98 699.032 610.38 699.032 609.7C699.032 609.02 699.168 608.424 699.44 607.912C699.712 607.4 700.092 607.008 700.58 606.736C701.076 606.456 701.644 606.316 702.284 606.316C702.908 606.316 703.46 606.452 703.94 606.724C704.42 606.996 704.788 607.372 705.044 607.852C705.308 608.324 705.44 608.86 705.44 609.46ZM704.312 609.232C704.312 608.816 704.22 608.46 704.036 608.164C703.852 607.86 703.6 607.632 703.28 607.48C702.968 607.32 702.62 607.24 702.236 607.24C701.684 607.24 701.212 607.416 700.82 607.768C700.436 608.12 700.216 608.608 700.16 609.232H704.312ZM707.973 607.492C708.165 607.116 708.437 606.824 708.789 606.616C709.149 606.408 709.585 606.304 710.097 606.304V607.432H709.809C708.585 607.432 707.973 608.096 707.973 609.424V613H706.881V606.424H707.973V607.492ZM720.389 606.424V613H719.297V612.028C719.089 612.364 718.797 612.628 718.421 612.82C718.053 613.004 717.645 613.096 717.197 613.096C716.685 613.096 716.225 612.992 715.817 612.784C715.409 612.568 715.085 612.248 714.845 611.824C714.613 611.4 714.497 610.884 714.497 610.276V606.424H715.577V610.132C715.577 610.78 715.741 611.28 716.069 611.632C716.397 611.976 716.845 612.148 717.413 612.148C717.997 612.148 718.457 611.968 718.793 611.608C719.129 611.248 719.297 610.724 719.297 610.036V606.424H720.389ZM725.437 606.304C726.237 606.304 726.885 606.548 727.381 607.036C727.877 607.516 728.125 608.212 728.125 609.124V613H727.045V609.28C727.045 608.624 726.881 608.124 726.553 607.78C726.225 607.428 725.777 607.252 725.209 607.252C724.633 607.252 724.173 607.432 723.829 607.792C723.493 608.152 723.325 608.676 723.325 609.364V613H722.233V606.424H723.325V607.36C723.541 607.024 723.833 606.764 724.201 606.58C724.577 606.396 724.989 606.304 725.437 606.304ZM732.7 609.7C732.7 609.02 732.836 608.428 733.108 607.924C733.38 607.412 733.756 607.016 734.236 606.736C734.724 606.456 735.28 606.316 735.904 606.316C736.712 606.316 737.376 606.512 737.896 606.904C738.424 607.296 738.772 607.84 738.94 608.536H737.764C737.652 608.136 737.432 607.82 737.104 607.588C736.784 607.356 736.384 607.24 735.904 607.24C735.28 607.24 734.776 607.456 734.392 607.888C734.008 608.312 733.816 608.916 733.816 609.7C733.816 610.492 734.008 611.104 734.392 611.536C734.776 611.968 735.28 612.184 735.904 612.184C736.384 612.184 736.784 612.072 737.104 611.848C737.424 611.624 737.644 611.304 737.764 610.888H738.94C738.764 611.56 738.412 612.1 737.884 612.508C737.356 612.908 736.696 613.108 735.904 613.108C735.28 613.108 734.724 612.968 734.236 612.688C733.756 612.408 733.38 612.012 733.108 611.5C732.836 610.988 732.7 610.388 732.7 609.7ZM743.265 613.108C742.649 613.108 742.089 612.968 741.585 612.688C741.089 612.408 740.697 612.012 740.409 611.5C740.129 610.98 739.989 610.38 739.989 609.7C739.989 609.028 740.133 608.436 740.421 607.924C740.717 607.404 741.117 607.008 741.621 606.736C742.125 606.456 742.689 606.316 743.313 606.316C743.937 606.316 744.501 606.456 745.005 606.736C745.509 607.008 745.905 607.4 746.193 607.912C746.489 608.424 746.637 609.02 746.637 609.7C746.637 610.38 746.485 610.98 746.181 611.5C745.885 612.012 745.481 612.408 744.969 612.688C744.457 612.968 743.889 613.108 743.265 613.108ZM743.265 612.148C743.657 612.148 744.025 612.056 744.369 611.872C744.713 611.688 744.989 611.412 745.197 611.044C745.413 610.676 745.521 610.228 745.521 609.7C745.521 609.172 745.417 608.724 745.209 608.356C745.001 607.988 744.729 607.716 744.393 607.54C744.057 607.356 743.693 607.264 743.301 607.264C742.901 607.264 742.533 607.356 742.197 607.54C741.869 607.716 741.605 607.988 741.405 608.356C741.205 608.724 741.105 609.172 741.105 609.7C741.105 610.236 741.201 610.688 741.393 611.056C741.593 611.424 741.857 611.7 742.185 611.884C742.513 612.06 742.873 612.148 743.265 612.148ZM755.98 606.304C756.492 606.304 756.948 606.412 757.348 606.628C757.748 606.836 758.064 607.152 758.296 607.576C758.528 608 758.644 608.516 758.644 609.124V613H757.564V609.28C757.564 608.624 757.4 608.124 757.072 607.78C756.752 607.428 756.316 607.252 755.764 607.252C755.196 607.252 754.744 607.436 754.408 607.804C754.072 608.164 753.904 608.688 753.904 609.376V613H752.824V609.28C752.824 608.624 752.66 608.124 752.332 607.78C752.012 607.428 751.576 607.252 751.024 607.252C750.456 607.252 750.004 607.436 749.668 607.804C749.332 608.164 749.164 608.688 749.164 609.376V613H748.072V606.424H749.164V607.372C749.38 607.028 749.668 606.764 750.028 606.58C750.396 606.396 750.8 606.304 751.24 606.304C751.792 606.304 752.28 606.428 752.704 606.676C753.128 606.924 753.444 607.288 753.652 607.768C753.836 607.304 754.14 606.944 754.564 606.688C754.988 606.432 755.46 606.304 755.98 606.304ZM761.528 607.636C761.744 607.26 762.064 606.948 762.488 606.7C762.92 606.444 763.42 606.316 763.988 606.316C764.572 606.316 765.1 606.456 765.572 606.736C766.052 607.016 766.428 607.412 766.7 607.924C766.972 608.428 767.108 609.016 767.108 609.688C767.108 610.352 766.972 610.944 766.7 611.464C766.428 611.984 766.052 612.388 765.572 612.676C765.1 612.964 764.572 613.108 763.988 613.108C763.428 613.108 762.932 612.984 762.5 612.736C762.076 612.48 761.752 612.164 761.528 611.788V616.12H760.436V606.424H761.528V607.636ZM765.992 609.688C765.992 609.192 765.892 608.76 765.692 608.392C765.492 608.024 765.22 607.744 764.876 607.552C764.54 607.36 764.168 607.264 763.76 607.264C763.36 607.264 762.988 607.364 762.644 607.564C762.308 607.756 762.036 608.04 761.828 608.416C761.628 608.784 761.528 609.212 761.528 609.7C761.528 610.196 761.628 610.632 761.828 611.008C762.036 611.376 762.308 611.66 762.644 611.86C762.988 612.052 763.36 612.148 763.76 612.148C764.168 612.148 764.54 612.052 764.876 611.86C765.22 611.66 765.492 611.376 765.692 611.008C765.892 610.632 765.992 610.192 765.992 609.688ZM769.877 607.324V611.2C769.877 611.52 769.945 611.748 770.081 611.884C770.217 612.012 770.453 612.076 770.789 612.076H771.593V613H770.609C770.001 613 769.545 612.86 769.241 612.58C768.937 612.3 768.785 611.84 768.785 611.2V607.324H767.933V606.424H768.785V604.768H769.877V606.424H771.593V607.324H769.877ZM778.916 609.46C778.916 609.668 778.904 609.888 778.88 610.12H773.624C773.664 610.768 773.884 611.276 774.284 611.644C774.692 612.004 775.184 612.184 775.76 612.184C776.232 612.184 776.624 612.076 776.936 611.86C777.256 611.636 777.48 611.34 777.608 610.972H778.784C778.608 611.604 778.256 612.12 777.728 612.52C777.2 612.912 776.544 613.108 775.76 613.108C775.136 613.108 774.576 612.968 774.08 612.688C773.592 612.408 773.208 612.012 772.928 611.5C772.648 610.98 772.508 610.38 772.508 609.7C772.508 609.02 772.644 608.424 772.916 607.912C773.188 607.4 773.568 607.008 774.056 606.736C774.552 606.456 775.12 606.316 775.76 606.316C776.384 606.316 776.936 606.452 777.416 606.724C777.896 606.996 778.264 607.372 778.52 607.852C778.784 608.324 778.916 608.86 778.916 609.46ZM777.788 609.232C777.788 608.816 777.696 608.46 777.512 608.164C777.328 607.86 777.076 607.632 776.756 607.48C776.444 607.32 776.096 607.24 775.712 607.24C775.16 607.24 774.688 607.416 774.296 607.768C773.912 608.12 773.692 608.608 773.636 609.232H777.788Z" fill="#106BFF"/>
</g>
</g>
<ellipse cx="873.862" cy="263.883" rx="75.8621" ry="75.873" fill="#106BFF"/>
<ellipse cx="949.724" cy="197.873" rx="75.8621" ry="75.873" fill="#106BFF"/>
<ellipse cx="956.552" cy="285.127" rx="75.8621" ry="75.873" fill="#106BFF"/>
<ellipse cx="1027.1" cy="290.438" rx="56.8966" ry="56.9048" fill="#106BFF"/>
<ellipse cx="1046.07" cy="219.117" rx="68.2759" ry="68.2857" fill="#106BFF"/>
<ellipse cx="1089.31" cy="277.54" rx="60.6897" ry="60.6984" fill="#106BFF"/>
<g filter="url(#filter1_f_93_637)">
<circle cx="220" cy="650" r="150" fill="#FAFAFC" fill-opacity="0.5"/>
</g>
<rect width="1280" height="57" transform="translate(0 28)" fill="#0A0A0C" fill-opacity="0.05"/>
<rect x="128" y="34" width="400" height="45" rx="6" fill="#1A1A1C" fill-opacity="0.5"/>
<path d="M158.216 61L155.892 57.01H154.352V61H153.078V51.242H156.228C156.965 51.242 157.586 51.368 158.09 51.62C158.603 51.872 158.986 52.2127 159.238 52.642C159.49 53.0713 159.616 53.5613 159.616 54.112C159.616 54.784 159.42 55.3767 159.028 55.89C158.645 56.4033 158.067 56.744 157.292 56.912L159.742 61H158.216ZM154.352 55.988H156.228C156.919 55.988 157.437 55.82 157.782 55.484C158.127 55.1387 158.3 54.6813 158.3 54.112C158.3 53.5333 158.127 53.0853 157.782 52.768C157.446 52.4507 156.928 52.292 156.228 52.292H154.352V55.988ZM168.596 56.87C168.596 57.1127 168.582 57.3693 168.554 57.64H162.422C162.468 58.396 162.725 58.9887 163.192 59.418C163.668 59.838 164.242 60.048 164.914 60.048C165.464 60.048 165.922 59.922 166.286 59.67C166.659 59.4087 166.92 59.0633 167.07 58.634H168.442C168.236 59.3713 167.826 59.9733 167.21 60.44C166.594 60.8973 165.828 61.126 164.914 61.126C164.186 61.126 163.532 60.9627 162.954 60.636C162.384 60.3093 161.936 59.8473 161.61 59.25C161.283 58.6433 161.12 57.9433 161.12 57.15C161.12 56.3567 161.278 55.6613 161.596 55.064C161.913 54.4667 162.356 54.0093 162.926 53.692C163.504 53.3653 164.167 53.202 164.914 53.202C165.642 53.202 166.286 53.3607 166.846 53.678C167.406 53.9953 167.835 54.434 168.134 54.994C168.442 55.5447 168.596 56.17 168.596 56.87ZM167.28 56.604C167.28 56.1187 167.172 55.7033 166.958 55.358C166.743 55.0033 166.449 54.7373 166.076 54.56C165.712 54.3733 165.306 54.28 164.858 54.28C164.214 54.28 163.663 54.4853 163.206 54.896C162.758 55.3067 162.501 55.876 162.436 56.604H167.28ZM169.801 57.15C169.801 56.3567 169.96 55.666 170.277 55.078C170.595 54.4807 171.033 54.0187 171.593 53.692C172.163 53.3653 172.811 53.202 173.539 53.202C174.482 53.202 175.257 53.4307 175.863 53.888C176.479 54.3453 176.885 54.98 177.081 55.792H175.709C175.579 55.3253 175.322 54.9567 174.939 54.686C174.566 54.4153 174.099 54.28 173.539 54.28C172.811 54.28 172.223 54.532 171.775 55.036C171.327 55.5307 171.103 56.2353 171.103 57.15C171.103 58.074 171.327 58.788 171.775 59.292C172.223 59.796 172.811 60.048 173.539 60.048C174.099 60.048 174.566 59.9173 174.939 59.656C175.313 59.3947 175.569 59.0213 175.709 58.536H177.081C176.876 59.32 176.465 59.95 175.849 60.426C175.233 60.8927 174.463 61.126 173.539 61.126C172.811 61.126 172.163 60.9627 171.593 60.636C171.033 60.3093 170.595 59.8473 170.277 59.25C169.96 58.6527 169.801 57.9527 169.801 57.15ZM182.589 53.188C183.168 53.188 183.69 53.314 184.157 53.566C184.624 53.8087 184.988 54.1773 185.249 54.672C185.52 55.1667 185.655 55.7687 185.655 56.478V61H184.395V56.66C184.395 55.8947 184.204 55.3113 183.821 54.91C183.438 54.4993 182.916 54.294 182.253 54.294C181.581 54.294 181.044 54.504 180.643 54.924C180.251 55.344 180.055 55.9553 180.055 56.758V61H178.781V50.64H180.055V54.42C180.307 54.028 180.652 53.7247 181.091 53.51C181.539 53.2953 182.038 53.188 182.589 53.188ZM194.736 56.87C194.736 57.1127 194.722 57.3693 194.694 57.64H188.562C188.609 58.396 188.866 58.9887 189.332 59.418C189.808 59.838 190.382 60.048 191.054 60.048C191.605 60.048 192.062 59.922 192.426 59.67C192.8 59.4087 193.061 59.0633 193.21 58.634H194.582C194.377 59.3713 193.966 59.9733 193.35 60.44C192.734 60.8973 191.969 61.126 191.054 61.126C190.326 61.126 189.673 60.9627 189.094 60.636C188.525 60.3093 188.077 59.8473 187.75 59.25C187.424 58.6433 187.26 57.9433 187.26 57.15C187.26 56.3567 187.419 55.6613 187.736 55.064C188.054 54.4667 188.497 54.0093 189.066 53.692C189.645 53.3653 190.308 53.202 191.054 53.202C191.782 53.202 192.426 53.3607 192.986 53.678C193.546 53.9953 193.976 54.434 194.274 54.994C194.582 55.5447 194.736 56.17 194.736 56.87ZM193.42 56.604C193.42 56.1187 193.313 55.7033 193.098 55.358C192.884 55.0033 192.59 54.7373 192.216 54.56C191.852 54.3733 191.446 54.28 190.998 54.28C190.354 54.28 189.804 54.4853 189.346 54.896C188.898 55.3067 188.642 55.876 188.576 56.604H193.42ZM197.692 54.574C197.916 54.1353 198.233 53.7947 198.644 53.552C199.064 53.3093 199.573 53.188 200.17 53.188V54.504H199.834C198.406 54.504 197.692 55.2787 197.692 56.828V61H196.418V53.328H197.692V54.574ZM201.165 57.15C201.165 56.3567 201.323 55.666 201.641 55.078C201.958 54.4807 202.397 54.0187 202.957 53.692C203.526 53.3653 204.175 53.202 204.903 53.202C205.845 53.202 206.62 53.4307 207.227 53.888C207.843 54.3453 208.249 54.98 208.445 55.792H207.073C206.942 55.3253 206.685 54.9567 206.303 54.686C205.929 54.4153 205.463 54.28 204.903 54.28C204.175 54.28 203.587 54.532 203.139 55.036C202.691 55.5307 202.467 56.2353 202.467 57.15C202.467 58.074 202.691 58.788 203.139 59.292C203.587 59.796 204.175 60.048 204.903 60.048C205.463 60.048 205.929 59.9173 206.303 59.656C206.676 59.3947 206.933 59.0213 207.073 58.536H208.445C208.239 59.32 207.829 59.95 207.213 60.426C206.597 60.8927 205.827 61.126 204.903 61.126C204.175 61.126 203.526 60.9627 202.957 60.636C202.397 60.3093 201.958 59.8473 201.641 59.25C201.323 58.6527 201.165 57.9527 201.165 57.15ZM213.952 53.188C214.531 53.188 215.054 53.314 215.52 53.566C215.987 53.8087 216.351 54.1773 216.612 54.672C216.883 55.1667 217.018 55.7687 217.018 56.478V61H215.758V56.66C215.758 55.8947 215.567 55.3113 215.184 54.91C214.802 54.4993 214.279 54.294 213.616 54.294C212.944 54.294 212.408 54.504 212.006 54.924C211.614 55.344 211.418 55.9553 211.418 56.758V61H210.144V50.64H211.418V54.42C211.67 54.028 212.016 53.7247 212.454 53.51C212.902 53.2953 213.402 53.188 213.952 53.188ZM226.099 56.87C226.099 57.1127 226.085 57.3693 226.057 57.64H219.925C219.972 58.396 220.229 58.9887 220.695 59.418C221.171 59.838 221.745 60.048 222.417 60.048C222.968 60.048 223.425 59.922 223.789 59.67C224.163 59.4087 224.424 59.0633 224.573 58.634H225.945C225.74 59.3713 225.329 59.9733 224.713 60.44C224.097 60.8973 223.332 61.126 222.417 61.126C221.689 61.126 221.036 60.9627 220.457 60.636C219.888 60.3093 219.44 59.8473 219.113 59.25C218.787 58.6433 218.623 57.9433 218.623 57.15C218.623 56.3567 218.782 55.6613 219.099 55.064C219.417 54.4667 219.86 54.0093 220.429 53.692C221.008 53.3653 221.671 53.202 222.417 53.202C223.145 53.202 223.789 53.3607 224.349 53.678C224.909 53.9953 225.339 54.434 225.637 54.994C225.945 55.5447 226.099 56.17 226.099 56.87ZM224.783 56.604C224.783 56.1187 224.676 55.7033 224.461 55.358C224.247 55.0033 223.953 54.7373 223.579 54.56C223.215 54.3733 222.809 54.28 222.361 54.28C221.717 54.28 221.167 54.4853 220.709 54.896C220.261 55.3067 220.005 55.876 219.939 56.604H224.783ZM229.055 54.574C229.279 54.1353 229.596 53.7947 230.007 53.552C230.427 53.3093 230.936 53.188 231.533 53.188V54.504H231.197C229.769 54.504 229.055 55.2787 229.055 56.828V61H227.781V53.328H229.055V54.574Z" fill="#DADADC"/>
<path d="M502.911 63.5L498.011 58.6C497.622 58.9111 497.175 59.1574 496.669 59.3389C496.164 59.5204 495.626 59.6111 495.056 59.6111C493.643 59.6111 492.447 59.1218 491.468 58.1431C490.489 57.1644 490 55.9685 490 54.5556C490 53.1426 490.489 51.9468 491.468 50.9681C492.447 49.9894 493.643 49.5 495.056 49.5C496.469 49.5 497.664 49.9894 498.643 50.9681C499.622 51.9468 500.111 53.1426 500.111 54.5556C500.111 55.1259 500.02 55.6639 499.839 56.1694C499.657 56.675 499.411 57.1222 499.1 57.5111L504 62.4111L502.911 63.5ZM495.056 58.0556C496.028 58.0556 496.854 57.7153 497.535 57.0347C498.215 56.3542 498.556 55.5278 498.556 54.5556C498.556 53.5833 498.215 52.7569 497.535 52.0764C496.854 51.3958 496.028 51.0556 495.056 51.0556C494.083 51.0556 493.257 51.3958 492.576 52.0764C491.896 52.7569 491.556 53.5833 491.556 54.5556C491.556 55.5278 491.896 56.3542 492.576 57.0347C493.257 57.7153 494.083 58.0556 495.056 58.0556Z" fill="#FAFAFC"/>
<path d="M929.596 51.242V61H928.322V56.576H923.352V61H922.078V51.242H923.352V55.526H928.322V51.242H929.596ZM935.117 61.126C934.399 61.126 933.745 60.9627 933.157 60.636C932.579 60.3093 932.121 59.8473 931.785 59.25C931.459 58.6433 931.295 57.9433 931.295 57.15C931.295 56.366 931.463 55.6753 931.799 55.078C932.145 54.4713 932.611 54.0093 933.199 53.692C933.787 53.3653 934.445 53.202 935.173 53.202C935.901 53.202 936.559 53.3653 937.147 53.692C937.735 54.0093 938.197 54.4667 938.533 55.064C938.879 55.6613 939.051 56.3567 939.051 57.15C939.051 57.9433 938.874 58.6433 938.519 59.25C938.174 59.8473 937.703 60.3093 937.105 60.636C936.508 60.9627 935.845 61.126 935.117 61.126ZM935.117 60.006C935.575 60.006 936.004 59.8987 936.405 59.684C936.807 59.4693 937.129 59.1473 937.371 58.718C937.623 58.2887 937.749 57.766 937.749 57.15C937.749 56.534 937.628 56.0113 937.385 55.582C937.143 55.1527 936.825 54.8353 936.433 54.63C936.041 54.4153 935.617 54.308 935.159 54.308C934.693 54.308 934.263 54.4153 933.871 54.63C933.489 54.8353 933.181 55.1527 932.947 55.582C932.714 56.0113 932.597 56.534 932.597 57.15C932.597 57.7753 932.709 58.3027 932.933 58.732C933.167 59.1613 933.475 59.4833 933.857 59.698C934.24 59.9033 934.66 60.006 935.117 60.006ZM949.952 53.188C950.55 53.188 951.082 53.314 951.548 53.566C952.015 53.8087 952.384 54.1773 952.654 54.672C952.925 55.1667 953.06 55.7687 953.06 56.478V61H951.8V56.66C951.8 55.8947 951.609 55.3113 951.226 54.91C950.853 54.4993 950.344 54.294 949.7 54.294C949.038 54.294 948.51 54.5087 948.118 54.938C947.726 55.358 947.53 55.9693 947.53 56.772V61H946.27V56.66C946.27 55.8947 946.079 55.3113 945.696 54.91C945.323 54.4993 944.814 54.294 944.17 54.294C943.508 54.294 942.98 54.5087 942.588 54.938C942.196 55.358 942 55.9693 942 56.772V61H940.726V53.328H942V54.434C942.252 54.0327 942.588 53.7247 943.008 53.51C943.438 53.2953 943.909 53.188 944.422 53.188C945.066 53.188 945.636 53.3327 946.13 53.622C946.625 53.9113 946.994 54.336 947.236 54.896C947.451 54.3547 947.806 53.9347 948.3 53.636C948.795 53.3373 949.346 53.188 949.952 53.188ZM962.15 56.87C962.15 57.1127 962.136 57.3693 962.108 57.64H955.976C956.023 58.396 956.28 58.9887 956.746 59.418C957.222 59.838 957.796 60.048 958.468 60.048C959.019 60.048 959.476 59.922 959.84 59.67C960.214 59.4087 960.475 59.0633 960.624 58.634H961.996C961.791 59.3713 961.38 59.9733 960.764 60.44C960.148 60.8973 959.383 61.126 958.468 61.126C957.74 61.126 957.087 60.9627 956.508 60.636C955.939 60.3093 955.491 59.8473 955.164 59.25C954.838 58.6433 954.674 57.9433 954.674 57.15C954.674 56.3567 954.833 55.6613 955.15 55.064C955.468 54.4667 955.911 54.0093 956.48 53.692C957.059 53.3653 957.722 53.202 958.468 53.202C959.196 53.202 959.84 53.3607 960.4 53.678C960.96 53.9953 961.39 54.434 961.688 54.994C961.996 55.5447 962.15 56.17 962.15 56.87ZM960.834 56.604C960.834 56.1187 960.727 55.7033 960.512 55.358C960.298 55.0033 960.004 54.7373 959.63 54.56C959.266 54.3733 958.86 54.28 958.412 54.28C957.768 54.28 957.218 54.4853 956.76 54.896C956.312 55.3067 956.056 55.876 955.99 56.604H960.834Z" fill="#FAFAFC"/>
<path d="M1039.17 61.098C1038.53 61.098 1037.95 60.986 1037.44 60.762C1036.93 60.5287 1036.54 60.2113 1036.25 59.81C1035.96 59.3993 1035.81 58.928 1035.8 58.396H1037.16C1037.2 58.8533 1037.39 59.2407 1037.72 59.558C1038.05 59.866 1038.54 60.02 1039.17 60.02C1039.78 60.02 1040.25 59.8707 1040.6 59.572C1040.95 59.264 1041.13 58.872 1041.13 58.396C1041.13 58.0227 1041.03 57.7193 1040.82 57.486C1040.62 57.2527 1040.36 57.0753 1040.05 56.954C1039.75 56.8327 1039.33 56.702 1038.81 56.562C1038.16 56.394 1037.65 56.226 1037.25 56.058C1036.87 55.89 1036.54 55.6287 1036.26 55.274C1035.99 54.91 1035.85 54.4247 1035.85 53.818C1035.85 53.286 1035.99 52.8147 1036.26 52.404C1036.53 51.9933 1036.91 51.676 1037.39 51.452C1037.89 51.228 1038.45 51.116 1039.09 51.116C1040 51.116 1040.75 51.3447 1041.33 51.802C1041.92 52.2593 1042.25 52.866 1042.32 53.622H1040.92C1040.88 53.2487 1040.68 52.922 1040.33 52.642C1039.99 52.3527 1039.53 52.208 1038.96 52.208C1038.43 52.208 1038 52.348 1037.66 52.628C1037.32 52.8987 1037.16 53.2813 1037.16 53.776C1037.16 54.1307 1037.25 54.42 1037.45 54.644C1037.66 54.868 1037.9 55.0407 1038.19 55.162C1038.49 55.274 1038.91 55.4047 1039.44 55.554C1040.08 55.7313 1040.6 55.9087 1040.99 56.086C1041.38 56.254 1041.72 56.52 1042 56.884C1042.28 57.2387 1042.42 57.724 1042.42 58.34C1042.42 58.816 1042.29 59.264 1042.04 59.684C1041.79 60.104 1041.42 60.4447 1040.92 60.706C1040.43 60.9673 1039.84 61.098 1039.17 61.098ZM1051.29 56.87C1051.29 57.1127 1051.28 57.3693 1051.25 57.64H1045.12C1045.17 58.396 1045.42 58.9887 1045.89 59.418C1046.37 59.838 1046.94 60.048 1047.61 60.048C1048.16 60.048 1048.62 59.922 1048.98 59.67C1049.36 59.4087 1049.62 59.0633 1049.77 58.634H1051.14C1050.94 59.3713 1050.52 59.9733 1049.91 60.44C1049.29 60.8973 1048.53 61.126 1047.61 61.126C1046.88 61.126 1046.23 60.9627 1045.65 60.636C1045.08 60.3093 1044.64 59.8473 1044.31 59.25C1043.98 58.6433 1043.82 57.9433 1043.82 57.15C1043.82 56.3567 1043.98 55.6613 1044.29 55.064C1044.61 54.4667 1045.06 54.0093 1045.62 53.692C1046.2 53.3653 1046.87 53.202 1047.61 53.202C1048.34 53.202 1048.98 53.3607 1049.54 53.678C1050.1 53.9953 1050.53 54.434 1050.83 54.994C1051.14 55.5447 1051.29 56.17 1051.29 56.87ZM1049.98 56.604C1049.98 56.1187 1049.87 55.7033 1049.66 55.358C1049.44 55.0033 1049.15 54.7373 1048.77 54.56C1048.41 54.3733 1048 54.28 1047.56 54.28C1046.91 54.28 1046.36 54.4853 1045.9 54.896C1045.46 55.3067 1045.2 55.876 1045.13 56.604H1049.98ZM1056.23 57.15C1056.23 56.3567 1056.39 55.666 1056.71 55.078C1057.03 54.4807 1057.46 54.0187 1058.02 53.692C1058.59 53.3653 1059.24 53.202 1059.97 53.202C1060.91 53.202 1061.69 53.4307 1062.29 53.888C1062.91 54.3453 1063.32 54.98 1063.51 55.792H1062.14C1062.01 55.3253 1061.75 54.9567 1061.37 54.686C1061 54.4153 1060.53 54.28 1059.97 54.28C1059.24 54.28 1058.65 54.532 1058.21 55.036C1057.76 55.5307 1057.53 56.2353 1057.53 57.15C1057.53 58.074 1057.76 58.788 1058.21 59.292C1058.65 59.796 1059.24 60.048 1059.97 60.048C1060.53 60.048 1061 59.9173 1061.37 59.656C1061.74 59.3947 1062 59.0213 1062.14 58.536H1063.51C1063.31 59.32 1062.9 59.95 1062.28 60.426C1061.66 60.8927 1060.89 61.126 1059.97 61.126C1059.24 61.126 1058.59 60.9627 1058.02 60.636C1057.46 60.3093 1057.03 59.8473 1056.71 59.25C1056.39 58.6527 1056.23 57.9527 1056.23 57.15ZM1068.56 61.126C1067.84 61.126 1067.19 60.9627 1066.6 60.636C1066.02 60.3093 1065.56 59.8473 1065.23 59.25C1064.9 58.6433 1064.74 57.9433 1064.74 57.15C1064.74 56.366 1064.9 55.6753 1065.24 55.078C1065.59 54.4713 1066.05 54.0093 1066.64 53.692C1067.23 53.3653 1067.89 53.202 1068.61 53.202C1069.34 53.202 1070 53.3653 1070.59 53.692C1071.18 54.0093 1071.64 54.4667 1071.97 55.064C1072.32 55.6613 1072.49 56.3567 1072.49 57.15C1072.49 57.9433 1072.32 58.6433 1071.96 59.25C1071.62 59.8473 1071.14 60.3093 1070.55 60.636C1069.95 60.9627 1069.29 61.126 1068.56 61.126ZM1068.56 60.006C1069.02 60.006 1069.45 59.8987 1069.85 59.684C1070.25 59.4693 1070.57 59.1473 1070.81 58.718C1071.06 58.2887 1071.19 57.766 1071.19 57.15C1071.19 56.534 1071.07 56.0113 1070.83 55.582C1070.58 55.1527 1070.27 54.8353 1069.87 54.63C1069.48 54.4153 1069.06 54.308 1068.6 54.308C1068.13 54.308 1067.7 54.4153 1067.31 54.63C1066.93 54.8353 1066.62 55.1527 1066.39 55.582C1066.16 56.0113 1066.04 56.534 1066.04 57.15C1066.04 57.7753 1066.15 58.3027 1066.37 58.732C1066.61 59.1613 1066.92 59.4833 1067.3 59.698C1067.68 59.9033 1068.1 60.006 1068.56 60.006ZM1077.91 53.188C1078.84 53.188 1079.6 53.4727 1080.17 54.042C1080.75 54.602 1081.04 55.414 1081.04 56.478V61H1079.78V56.66C1079.78 55.8947 1079.59 55.3113 1079.21 54.91C1078.83 54.4993 1078.3 54.294 1077.64 54.294C1076.97 54.294 1076.43 54.504 1076.03 54.924C1075.64 55.344 1075.44 55.9553 1075.44 56.758V61H1074.17V53.328H1075.44V54.42C1075.69 54.028 1076.03 53.7247 1076.46 53.51C1076.9 53.2953 1077.38 53.188 1077.91 53.188ZM1086.86 53.188C1087.79 53.188 1088.55 53.4727 1089.13 54.042C1089.71 54.602 1090 55.414 1090 56.478V61H1088.74V56.66C1088.74 55.8947 1088.55 55.3113 1088.16 54.91C1087.78 54.4993 1087.26 54.294 1086.59 54.294C1085.92 54.294 1085.39 54.504 1084.98 54.924C1084.59 55.344 1084.4 55.9553 1084.4 56.758V61H1083.12V53.328H1084.4V54.42C1084.65 54.028 1084.99 53.7247 1085.42 53.51C1085.86 53.2953 1086.34 53.188 1086.86 53.188ZM1099.08 56.87C1099.08 57.1127 1099.06 57.3693 1099.04 57.64H1092.9C1092.95 58.396 1093.21 58.9887 1093.67 59.418C1094.15 59.838 1094.72 60.048 1095.4 60.048C1095.95 60.048 1096.4 59.922 1096.77 59.67C1097.14 59.4087 1097.4 59.0633 1097.55 58.634H1098.92C1098.72 59.3713 1098.31 59.9733 1097.69 60.44C1097.08 60.8973 1096.31 61.126 1095.4 61.126C1094.67 61.126 1094.01 60.9627 1093.44 60.636C1092.87 60.3093 1092.42 59.8473 1092.09 59.25C1091.77 58.6433 1091.6 57.9433 1091.6 57.15C1091.6 56.3567 1091.76 55.6613 1092.08 55.064C1092.4 54.4667 1092.84 54.0093 1093.41 53.692C1093.99 53.3653 1094.65 53.202 1095.4 53.202C1096.12 53.202 1096.77 53.3607 1097.33 53.678C1097.89 53.9953 1098.32 54.434 1098.62 54.994C1098.92 55.5447 1099.08 56.17 1099.08 56.87ZM1097.76 56.604C1097.76 56.1187 1097.65 55.7033 1097.44 55.358C1097.23 55.0033 1096.93 54.7373 1096.56 54.56C1096.19 54.3733 1095.79 54.28 1095.34 54.28C1094.7 54.28 1094.15 54.4853 1093.69 54.896C1093.24 55.3067 1092.98 55.876 1092.92 56.604H1097.76ZM1100.28 57.15C1100.28 56.3567 1100.44 55.666 1100.76 55.078C1101.08 54.4807 1101.52 54.0187 1102.08 53.692C1102.64 53.3653 1103.29 53.202 1104.02 53.202C1104.96 53.202 1105.74 53.4307 1106.35 53.888C1106.96 54.3453 1107.37 54.98 1107.56 55.792H1106.19C1106.06 55.3253 1105.8 54.9567 1105.42 54.686C1105.05 54.4153 1104.58 54.28 1104.02 54.28C1103.29 54.28 1102.71 54.532 1102.26 55.036C1101.81 55.5307 1101.59 56.2353 1101.59 57.15C1101.59 58.074 1101.81 58.788 1102.26 59.292C1102.71 59.796 1103.29 60.048 1104.02 60.048C1104.58 60.048 1105.05 59.9173 1105.42 59.656C1105.79 59.3947 1106.05 59.0213 1106.19 58.536H1107.56C1107.36 59.32 1106.95 59.95 1106.33 60.426C1105.72 60.8927 1104.95 61.126 1104.02 61.126C1103.29 61.126 1102.64 60.9627 1102.08 60.636C1101.52 60.3093 1101.08 59.8473 1100.76 59.25C1100.44 58.6527 1100.28 57.9527 1100.28 57.15ZM1110.82 54.378V58.9C1110.82 59.2733 1110.9 59.5393 1111.06 59.698C1111.21 59.8473 1111.49 59.922 1111.88 59.922H1112.82V61H1111.67C1110.96 61 1110.43 60.8367 1110.08 60.51C1109.72 60.1833 1109.54 59.6467 1109.54 58.9V54.378H1108.55V53.328H1109.54V51.396H1110.82V53.328H1112.82V54.378H1110.82ZM1121.36 56.87C1121.36 57.1127 1121.35 57.3693 1121.32 57.64H1115.19C1115.24 58.396 1115.49 58.9887 1115.96 59.418C1116.44 59.838 1117.01 60.048 1117.68 60.048C1118.23 60.048 1118.69 59.922 1119.05 59.67C1119.43 59.4087 1119.69 59.0633 1119.84 58.634H1121.21C1121 59.3713 1120.59 59.9733 1119.98 60.44C1119.36 60.8973 1118.6 61.126 1117.68 61.126C1116.95 61.126 1116.3 60.9627 1115.72 60.636C1115.15 60.3093 1114.7 59.8473 1114.38 59.25C1114.05 58.6433 1113.89 57.9433 1113.89 57.15C1113.89 56.3567 1114.05 55.6613 1114.36 55.064C1114.68 54.4667 1115.12 54.0093 1115.69 53.692C1116.27 53.3653 1116.93 53.202 1117.68 53.202C1118.41 53.202 1119.05 53.3607 1119.61 53.678C1120.17 53.9953 1120.6 54.434 1120.9 54.994C1121.21 55.5447 1121.36 56.17 1121.36 56.87ZM1120.05 56.604C1120.05 56.1187 1119.94 55.7033 1119.73 55.358C1119.51 55.0033 1119.22 54.7373 1118.84 54.56C1118.48 54.3733 1118.07 54.28 1117.63 54.28C1116.98 54.28 1116.43 54.4853 1115.97 54.896C1115.53 55.3067 1115.27 55.876 1115.2 56.604H1120.05ZM1124.32 54.574C1124.54 54.1353 1124.86 53.7947 1125.27 53.552C1125.69 53.3093 1126.2 53.188 1126.8 53.188V54.504H1126.46C1125.03 54.504 1124.32 55.2787 1124.32 56.828V61H1123.04V53.328H1124.32V54.574Z" fill="#FAFAFC"/>
<rect width="1280" height="28" fill="#0A0A0C"/>
</g>
<defs>
<filter id="filter0_d_93_637" x="388" y="171" width="504" height="575" filterUnits="userSpaceOnUse" color-interpolation-filters="sRGB">
<feFlood flood-opacity="0" result="BackgroundImageFix"/>
<feColorMatrix in="SourceAlpha" type="matrix" values="0 0 0 0 0 0 0 0 0 0 0 0 0 0 0 0 0 0 127 0" result="hardAlpha"/>
<feOffset dy="5"/>
<feGaussianBlur stdDeviation="12.5"/>
<feComposite in2="hardAlpha" operator="out"/>
<feColorMatrix type="matrix" values="0 0 0 0 0.0392157 0 0 0 0 0.0392157 0 0 0 0 0.0470588 0 0 0 0.5 0"/>
<feBlend mode="normal" in2="BackgroundImageFix" result="effect1_dropShadow_93_637"/>
<feBlend mode="normal" in="SourceGraphic" in2="effect1_dropShadow_93_637" result="shape"/>
</filter>
<filter id="filter1_f_93_637" x="-442" y="-12" width="1324" height="1324" filterUnits="userSpaceOnUse" color-interpolation-filters="sRGB">
<feFlood flood-opacity="0" result="BackgroundImageFix"/>
<feBlend mode="normal" in="SourceGraphic" in2="BackgroundImageFix" result="shape"/>
<feGaussianBlur stdDeviation="256" result="effect1_foregroundBlur_93_637"/>
</filter>
<clipPath id="clip0_93_637">
<rect width="1280" height="832" fill="white"/>
</clipPath>
<clipPath id="clip1_93_637">
<rect x="659" y="600" width="121" height="18" rx="6" fill="white"/>
</clipPath>
</defs>
</svg>
