<svg width="1280" height="832" viewBox="0 0 1280 832" fill="none" xmlns="http://www.w3.org/2000/svg">
<g clip-path="url(#clip0_93_778)">
<rect width="1280" height="832" fill="#0A0A0C"/>
<ellipse cx="152.89" cy="664.562" rx="101.89" ry="101.905" fill="#106BFF"/>
<ellipse cx="254.78" cy="575.905" rx="101.89" ry="101.905" fill="#106BFF"/>
<ellipse cx="263.95" cy="693.095" rx="101.89" ry="101.905" fill="#106BFF"/>
<ellipse cx="358.708" cy="700.228" rx="76.4175" ry="76.4286" fill="#106BFF"/>
<ellipse cx="384.18" cy="604.438" rx="91.7011" ry="91.7143" fill="#106BFF"/>
<ellipse cx="442.258" cy="682.905" rx="81.5121" ry="81.5238" fill="#106BFF"/>
<g filter="url(#filter0_d_93_778)">
<rect x="452" y="178" width="376" height="561" rx="12" fill="#1A1A1C" fill-opacity="0.5" shape-rendering="crispEdges"/>
<rect x="452.5" y="178.5" width="375" height="560" rx="11.5" stroke="#2A2A2C" stroke-opacity="0.5" stroke-linecap="square" shape-rendering="crispEdges"/>
<path d="M564.376 282.252C562.528 282.252 560.872 281.952 559.408 281.352C557.944 280.752 556.768 279.864 555.88 278.688C555.016 277.512 554.56 276.096 554.512 274.44H561.064C561.16 275.376 561.484 276.096 562.036 276.6C562.588 277.08 563.308 277.32 564.196 277.32C565.108 277.32 565.828 277.116 566.356 276.708C566.884 276.276 567.148 275.688 567.148 274.944C567.148 274.32 566.932 273.804 566.5 273.396C566.092 272.988 565.576 272.652 564.952 272.388C564.352 272.124 563.488 271.824 562.36 271.488C560.728 270.984 559.396 270.48 558.364 269.976C557.332 269.472 556.444 268.728 555.7 267.744C554.956 266.76 554.584 265.476 554.584 263.892C554.584 261.54 555.436 259.704 557.14 258.384C558.844 257.04 561.064 256.368 563.8 256.368C566.584 256.368 568.828 257.04 570.532 258.384C572.236 259.704 573.148 261.552 573.268 263.928H566.608C566.56 263.112 566.26 262.476 565.708 262.02C565.156 261.54 564.448 261.3 563.584 261.3C562.84 261.3 562.24 261.504 561.784 261.912C561.328 262.296 561.1 262.86 561.1 263.604C561.1 264.42 561.484 265.056 562.252 265.512C563.02 265.968 564.22 266.46 565.852 266.988C567.484 267.54 568.804 268.068 569.812 268.572C570.844 269.076 571.732 269.808 572.476 270.768C573.22 271.728 573.592 272.964 573.592 274.476C573.592 275.916 573.22 277.224 572.476 278.4C571.756 279.576 570.7 280.512 569.308 281.208C567.916 281.904 566.272 282.252 564.376 282.252ZM578.784 256.728H585.084L581.052 266.376H576.912L578.784 256.728ZM591.797 259.824C590.717 259.824 589.829 259.512 589.133 258.888C588.461 258.24 588.125 257.448 588.125 256.512C588.125 255.552 588.461 254.76 589.133 254.136C589.829 253.488 590.717 253.164 591.797 253.164C592.853 253.164 593.717 253.488 594.389 254.136C595.085 254.76 595.433 255.552 595.433 256.512C595.433 257.448 595.085 258.24 594.389 258.888C593.717 259.512 592.853 259.824 591.797 259.824ZM594.857 261.912V282H588.701V261.912H594.857ZM611.558 261.696C613.91 261.696 615.782 262.464 617.174 264C618.59 265.512 619.298 267.6 619.298 270.264V282H613.178V271.092C613.178 269.748 612.83 268.704 612.134 267.96C611.438 267.216 610.502 266.844 609.326 266.844C608.15 266.844 607.214 267.216 606.518 267.96C605.822 268.704 605.474 269.748 605.474 271.092V282H599.318V261.912H605.474V264.576C606.098 263.688 606.938 262.992 607.994 262.488C609.05 261.96 610.238 261.696 611.558 261.696ZM631.748 282.288C629.996 282.288 628.436 281.988 627.068 281.388C625.7 280.788 624.62 279.972 623.828 278.94C623.036 277.884 622.592 276.708 622.496 275.412H628.58C628.652 276.108 628.976 276.672 629.552 277.104C630.128 277.536 630.836 277.752 631.676 277.752C632.444 277.752 633.032 277.608 633.44 277.32C633.872 277.008 634.088 276.612 634.088 276.132C634.088 275.556 633.788 275.136 633.188 274.872C632.588 274.584 631.616 274.272 630.272 273.936C628.832 273.6 627.632 273.252 626.672 272.892C625.712 272.508 624.884 271.92 624.188 271.128C623.492 270.312 623.144 269.22 623.144 267.852C623.144 266.7 623.456 265.656 624.08 264.72C624.728 263.76 625.664 263.004 626.888 262.452C628.136 261.9 629.612 261.624 631.316 261.624C633.836 261.624 635.816 262.248 637.256 263.496C638.72 264.744 639.56 266.4 639.776 268.464H634.088C633.992 267.768 633.68 267.216 633.152 266.808C632.648 266.4 631.976 266.196 631.136 266.196C630.416 266.196 629.864 266.34 629.48 266.628C629.096 266.892 628.904 267.264 628.904 267.744C628.904 268.32 629.204 268.752 629.804 269.04C630.428 269.328 631.388 269.616 632.684 269.904C634.172 270.288 635.384 270.672 636.32 271.056C637.256 271.416 638.072 272.016 638.768 272.856C639.488 273.672 639.86 274.776 639.884 276.168C639.884 277.344 639.548 278.4 638.876 279.336C638.228 280.248 637.28 280.968 636.032 281.496C634.808 282.024 633.38 282.288 631.748 282.288ZM642.426 271.956C642.426 269.868 642.846 268.044 643.686 266.484C644.55 264.924 645.738 263.724 647.25 262.884C648.786 262.044 650.538 261.624 652.506 261.624C655.026 261.624 657.126 262.284 658.806 263.604C660.51 264.924 661.626 266.784 662.154 269.184H655.602C655.05 267.648 653.982 266.88 652.398 266.88C651.27 266.88 650.37 267.324 649.698 268.212C649.026 269.076 648.69 270.324 648.69 271.956C648.69 273.588 649.026 274.848 649.698 275.736C650.37 276.6 651.27 277.032 652.398 277.032C653.982 277.032 655.05 276.264 655.602 274.728H662.154C661.626 277.08 660.51 278.928 658.806 280.272C657.102 281.616 655.002 282.288 652.506 282.288C650.538 282.288 648.786 281.868 647.25 281.028C645.738 280.188 644.55 278.988 643.686 277.428C642.846 275.868 642.426 274.044 642.426 271.956ZM671.603 265.26C672.323 264.156 673.223 263.292 674.303 262.668C675.383 262.02 676.583 261.696 677.903 261.696V268.212H676.211C674.675 268.212 673.523 268.548 672.755 269.22C671.987 269.868 671.603 271.02 671.603 272.676V282H665.447V261.912H671.603V265.26ZM683.941 259.824C682.861 259.824 681.973 259.512 681.277 258.888C680.605 258.24 680.269 257.448 680.269 256.512C680.269 255.552 680.605 254.76 681.277 254.136C681.973 253.488 682.861 253.164 683.941 253.164C684.997 253.164 685.861 253.488 686.533 254.136C687.229 254.76 687.577 255.552 687.577 256.512C687.577 257.448 687.229 258.24 686.533 258.888C685.861 259.512 684.997 259.824 683.941 259.824ZM687.001 261.912V282H680.845V261.912H687.001ZM697.618 265.26C698.338 264.156 699.238 263.292 700.318 262.668C701.398 262.02 702.598 261.696 703.918 261.696V268.212H702.226C700.69 268.212 699.538 268.548 698.77 269.22C698.002 269.868 697.618 271.02 697.618 272.676V282H691.462V261.912H697.618V265.26ZM725.797 271.632C725.797 272.208 725.761 272.808 725.689 273.432H711.757C711.853 274.68 712.249 275.64 712.945 276.312C713.665 276.96 714.541 277.284 715.573 277.284C717.109 277.284 718.177 276.636 718.777 275.34H725.329C724.993 276.66 724.381 277.848 723.493 278.904C722.629 279.96 721.537 280.788 720.217 281.388C718.897 281.988 717.421 282.288 715.789 282.288C713.821 282.288 712.069 281.868 710.533 281.028C708.997 280.188 707.797 278.988 706.933 277.428C706.069 275.868 705.637 274.044 705.637 271.956C705.637 269.868 706.057 268.044 706.897 266.484C707.761 264.924 708.961 263.724 710.497 262.884C712.033 262.044 713.797 261.624 715.789 261.624C717.733 261.624 719.461 262.032 720.973 262.848C722.485 263.664 723.661 264.828 724.501 266.34C725.365 267.852 725.797 269.616 725.797 271.632ZM719.497 270.012C719.497 268.956 719.137 268.116 718.417 267.492C717.697 266.868 716.797 266.556 715.717 266.556C714.685 266.556 713.809 266.856 713.089 267.456C712.393 268.056 711.961 268.908 711.793 270.012H719.497Z" fill="#FAFAFC"/>
<rect x="500" y="360" width="280" height="45" rx="6" fill="#2A2A2C" fill-opacity="0.5"/>
<path d="M531.602 380.098C531.602 380.91 531.322 381.587 530.762 382.128C530.211 382.66 529.367 382.926 528.228 382.926H526.352V387H525.078V377.242H528.228C529.329 377.242 530.165 377.508 530.734 378.04C531.313 378.572 531.602 379.258 531.602 380.098ZM528.228 381.876C528.937 381.876 529.46 381.722 529.796 381.414C530.132 381.106 530.3 380.667 530.3 380.098C530.3 378.894 529.609 378.292 528.228 378.292H526.352V381.876H528.228ZM534.459 380.574C534.683 380.135 535.001 379.795 535.411 379.552C535.831 379.309 536.34 379.188 536.937 379.188V380.504H536.601C535.173 380.504 534.459 381.279 534.459 382.828V387H533.185V379.328H534.459V380.574ZM545.408 382.87C545.408 383.113 545.394 383.369 545.366 383.64H539.234C539.281 384.396 539.537 384.989 540.004 385.418C540.48 385.838 541.054 386.048 541.726 386.048C542.277 386.048 542.734 385.922 543.098 385.67C543.471 385.409 543.733 385.063 543.882 384.634H545.254C545.049 385.371 544.638 385.973 544.022 386.44C543.406 386.897 542.641 387.126 541.726 387.126C540.998 387.126 540.345 386.963 539.766 386.636C539.197 386.309 538.749 385.847 538.422 385.25C538.095 384.643 537.932 383.943 537.932 383.15C537.932 382.357 538.091 381.661 538.408 381.064C538.725 380.467 539.169 380.009 539.738 379.692C540.317 379.365 540.979 379.202 541.726 379.202C542.454 379.202 543.098 379.361 543.658 379.678C544.218 379.995 544.647 380.434 544.946 380.994C545.254 381.545 545.408 382.17 545.408 382.87ZM544.092 382.604C544.092 382.119 543.985 381.703 543.77 381.358C543.555 381.003 543.261 380.737 542.888 380.56C542.524 380.373 542.118 380.28 541.67 380.28C541.026 380.28 540.475 380.485 540.018 380.896C539.57 381.307 539.313 381.876 539.248 382.604H544.092ZM543.042 377.158L540.06 378.754V377.802L543.042 376.052V377.158ZM550.828 379.188C551.761 379.188 552.517 379.473 553.096 380.042C553.674 380.602 553.964 381.414 553.964 382.478V387H552.704V382.66C552.704 381.895 552.512 381.311 552.13 380.91C551.747 380.499 551.224 380.294 550.562 380.294C549.89 380.294 549.353 380.504 548.952 380.924C548.56 381.344 548.364 381.955 548.364 382.758V387H547.09V379.328H548.364V380.42C548.616 380.028 548.956 379.725 549.386 379.51C549.824 379.295 550.305 379.188 550.828 379.188ZM559.391 387.126C558.672 387.126 558.019 386.963 557.431 386.636C556.852 386.309 556.395 385.847 556.059 385.25C555.732 384.643 555.569 383.943 555.569 383.15C555.569 382.366 555.737 381.675 556.073 381.078C556.418 380.471 556.885 380.009 557.473 379.692C558.061 379.365 558.719 379.202 559.447 379.202C560.175 379.202 560.833 379.365 561.421 379.692C562.009 380.009 562.471 380.467 562.807 381.064C563.152 381.661 563.325 382.357 563.325 383.15C563.325 383.943 563.147 384.643 562.793 385.25C562.447 385.847 561.976 386.309 561.379 386.636C560.781 386.963 560.119 387.126 559.391 387.126ZM559.391 386.006C559.848 386.006 560.277 385.899 560.679 385.684C561.08 385.469 561.402 385.147 561.645 384.718C561.897 384.289 562.023 383.766 562.023 383.15C562.023 382.534 561.901 382.011 561.659 381.582C561.416 381.153 561.099 380.835 560.707 380.63C560.315 380.415 559.89 380.308 559.433 380.308C558.966 380.308 558.537 380.415 558.145 380.63C557.762 380.835 557.454 381.153 557.221 381.582C556.987 382.011 556.871 382.534 556.871 383.15C556.871 383.775 556.983 384.303 557.207 384.732C557.44 385.161 557.748 385.483 558.131 385.698C558.513 385.903 558.933 386.006 559.391 386.006ZM574.226 379.188C574.823 379.188 575.355 379.314 575.822 379.566C576.289 379.809 576.657 380.177 576.928 380.672C577.199 381.167 577.334 381.769 577.334 382.478V387H576.074V382.66C576.074 381.895 575.883 381.311 575.5 380.91C575.127 380.499 574.618 380.294 573.974 380.294C573.311 380.294 572.784 380.509 572.392 380.938C572 381.358 571.804 381.969 571.804 382.772V387H570.544V382.66C570.544 381.895 570.353 381.311 569.97 380.91C569.597 380.499 569.088 380.294 568.444 380.294C567.781 380.294 567.254 380.509 566.862 380.938C566.47 381.358 566.274 381.969 566.274 382.772V387H565V379.328H566.274V380.434C566.526 380.033 566.862 379.725 567.282 379.51C567.711 379.295 568.183 379.188 568.696 379.188C569.34 379.188 569.909 379.333 570.404 379.622C570.899 379.911 571.267 380.336 571.51 380.896C571.725 380.355 572.079 379.935 572.574 379.636C573.069 379.337 573.619 379.188 574.226 379.188Z" fill="#DADADC"/>
<rect x="500" y="417" width="280" height="45" rx="6" fill="#2A2A2C" fill-opacity="0.5"/>
<path d="M532.75 444H531.476L526.352 436.23V444H525.078V434.228H526.352L531.476 441.984V434.228H532.75V444ZM538.268 444.126C537.549 444.126 536.896 443.963 536.308 443.636C535.729 443.309 535.272 442.847 534.936 442.25C534.609 441.643 534.446 440.943 534.446 440.15C534.446 439.366 534.614 438.675 534.95 438.078C535.295 437.471 535.762 437.009 536.35 436.692C536.938 436.365 537.596 436.202 538.324 436.202C539.052 436.202 539.71 436.365 540.298 436.692C540.886 437.009 541.348 437.467 541.684 438.064C542.029 438.661 542.202 439.357 542.202 440.15C542.202 440.943 542.024 441.643 541.67 442.25C541.324 442.847 540.853 443.309 540.256 443.636C539.658 443.963 538.996 444.126 538.268 444.126ZM538.268 443.006C538.725 443.006 539.154 442.899 539.556 442.684C539.957 442.469 540.279 442.147 540.522 441.718C540.774 441.289 540.9 440.766 540.9 440.15C540.9 439.534 540.778 439.011 540.536 438.582C540.293 438.153 539.976 437.835 539.584 437.63C539.192 437.415 538.767 437.308 538.31 437.308C537.843 437.308 537.414 437.415 537.022 437.63C536.639 437.835 536.331 438.153 536.098 438.582C535.864 439.011 535.748 439.534 535.748 440.15C535.748 440.775 535.86 441.303 536.084 441.732C536.317 442.161 536.625 442.483 537.008 442.698C537.39 442.903 537.81 443.006 538.268 443.006ZM553.103 436.188C553.7 436.188 554.232 436.314 554.699 436.566C555.165 436.809 555.534 437.177 555.805 437.672C556.075 438.167 556.211 438.769 556.211 439.478V444H554.951V439.66C554.951 438.895 554.759 438.311 554.377 437.91C554.003 437.499 553.495 437.294 552.851 437.294C552.188 437.294 551.661 437.509 551.269 437.938C550.877 438.358 550.681 438.969 550.681 439.772V444H549.421V439.66C549.421 438.895 549.229 438.311 548.847 437.91C548.473 437.499 547.965 437.294 547.321 437.294C546.658 437.294 546.131 437.509 545.739 437.938C545.347 438.358 545.151 438.969 545.151 439.772V444H543.877V436.328H545.151V437.434C545.403 437.033 545.739 436.725 546.159 436.51C546.588 436.295 547.059 436.188 547.573 436.188C548.217 436.188 548.786 436.333 549.281 436.622C549.775 436.911 550.144 437.336 550.387 437.896C550.601 437.355 550.956 436.935 551.451 436.636C551.945 436.337 552.496 436.188 553.103 436.188Z" fill="#DADADC"/>
<rect x="500" y="474" width="280" height="45" rx="6" fill="#2A2A2C" fill-opacity="0.5"/>
<path d="M526.352 492.278V495.54H529.908V496.59H526.352V499.95H530.328V501H525.078V491.228H530.328V492.278H526.352ZM541.482 493.188C542.079 493.188 542.611 493.314 543.078 493.566C543.544 493.809 543.913 494.177 544.184 494.672C544.454 495.167 544.59 495.769 544.59 496.478V501H543.33V496.66C543.33 495.895 543.138 495.311 542.756 494.91C542.382 494.499 541.874 494.294 541.23 494.294C540.567 494.294 540.04 494.509 539.648 494.938C539.256 495.358 539.06 495.969 539.06 496.772V501H537.8V496.66C537.8 495.895 537.608 495.311 537.226 494.91C536.852 494.499 536.344 494.294 535.7 494.294C535.037 494.294 534.51 494.509 534.118 494.938C533.726 495.358 533.53 495.969 533.53 496.772V501H532.256V493.328H533.53V494.434C533.782 494.033 534.118 493.725 534.538 493.51C534.967 493.295 535.438 493.188 535.952 493.188C536.596 493.188 537.165 493.333 537.66 493.622C538.154 493.911 538.523 494.336 538.766 494.896C538.98 494.355 539.335 493.935 539.83 493.636C540.324 493.337 540.875 493.188 541.482 493.188ZM546.204 497.136C546.204 496.352 546.362 495.666 546.68 495.078C546.997 494.481 547.431 494.019 547.982 493.692C548.542 493.365 549.162 493.202 549.844 493.202C550.516 493.202 551.099 493.347 551.594 493.636C552.088 493.925 552.457 494.289 552.7 494.728V493.328H553.988V501H552.7V499.572C552.448 500.02 552.07 500.393 551.566 500.692C551.071 500.981 550.492 501.126 549.83 501.126C549.148 501.126 548.532 500.958 547.982 500.622C547.431 500.286 546.997 499.815 546.68 499.208C546.362 498.601 546.204 497.911 546.204 497.136ZM552.7 497.15C552.7 496.571 552.583 496.067 552.35 495.638C552.116 495.209 551.799 494.882 551.398 494.658C551.006 494.425 550.572 494.308 550.096 494.308C549.62 494.308 549.186 494.42 548.794 494.644C548.402 494.868 548.089 495.195 547.856 495.624C547.622 496.053 547.506 496.557 547.506 497.136C547.506 497.724 547.622 498.237 547.856 498.676C548.089 499.105 548.402 499.437 548.794 499.67C549.186 499.894 549.62 500.006 550.096 500.006C550.572 500.006 551.006 499.894 551.398 499.67C551.799 499.437 552.116 499.105 552.35 498.676C552.583 498.237 552.7 497.729 552.7 497.15ZM556.799 492.082C556.556 492.082 556.351 491.998 556.183 491.83C556.015 491.662 555.931 491.457 555.931 491.214C555.931 490.971 556.015 490.766 556.183 490.598C556.351 490.43 556.556 490.346 556.799 490.346C557.032 490.346 557.228 490.43 557.387 490.598C557.555 490.766 557.639 490.971 557.639 491.214C557.639 491.457 557.555 491.662 557.387 491.83C557.228 491.998 557.032 492.082 556.799 492.082ZM557.415 493.328V501H556.141V493.328H557.415ZM560.86 490.64V501H559.586V490.64H560.86Z" fill="#DADADC"/>
<rect x="500" y="531" width="280" height="45" rx="6" fill="#2A2A2C" fill-opacity="0.5"/>
<path d="M534.976 548.312V558H533.702V550.776L530.482 558H529.586L526.352 550.762V558H525.078V548.312H526.45L530.034 556.32L533.618 548.312H534.976ZM540.483 558.126C539.764 558.126 539.111 557.963 538.523 557.636C537.944 557.309 537.487 556.847 537.151 556.25C536.824 555.643 536.661 554.943 536.661 554.15C536.661 553.366 536.829 552.675 537.165 552.078C537.51 551.471 537.977 551.009 538.565 550.692C539.153 550.365 539.811 550.202 540.539 550.202C541.267 550.202 541.925 550.365 542.513 550.692C543.101 551.009 543.563 551.467 543.899 552.064C544.244 552.661 544.417 553.357 544.417 554.15C544.417 554.943 544.239 555.643 543.885 556.25C543.539 556.847 543.068 557.309 542.471 557.636C541.873 557.963 541.211 558.126 540.483 558.126ZM540.483 557.006C540.94 557.006 541.369 556.899 541.771 556.684C542.172 556.469 542.494 556.147 542.737 555.718C542.989 555.289 543.115 554.766 543.115 554.15C543.115 553.534 542.993 553.011 542.751 552.582C542.508 552.153 542.191 551.835 541.799 551.63C541.407 551.415 540.982 551.308 540.525 551.308C540.058 551.308 539.629 551.415 539.237 551.63C538.854 551.835 538.546 552.153 538.313 552.582C538.079 553.011 537.963 553.534 537.963 554.15C537.963 554.775 538.075 555.303 538.299 555.732C538.532 556.161 538.84 556.483 539.223 556.698C539.605 556.903 540.025 557.006 540.483 557.006ZM547.646 551.378V555.9C547.646 556.273 547.725 556.539 547.884 556.698C548.042 556.847 548.318 556.922 548.71 556.922H549.648V558H548.5C547.79 558 547.258 557.837 546.904 557.51C546.549 557.183 546.372 556.647 546.372 555.9V551.378H545.378V550.328H546.372V548.396H547.646V550.328H549.648V551.378H547.646ZM554.448 554.136C554.448 553.352 554.606 552.666 554.924 552.078C555.241 551.481 555.675 551.019 556.226 550.692C556.786 550.365 557.411 550.202 558.102 550.202C558.699 550.202 559.254 550.342 559.768 550.622C560.281 550.893 560.673 551.252 560.944 551.7V547.64H562.232V558H560.944V556.558C560.692 557.015 560.318 557.393 559.824 557.692C559.329 557.981 558.75 558.126 558.088 558.126C557.406 558.126 556.786 557.958 556.226 557.622C555.675 557.286 555.241 556.815 554.924 556.208C554.606 555.601 554.448 554.911 554.448 554.136ZM560.944 554.15C560.944 553.571 560.827 553.067 560.594 552.638C560.36 552.209 560.043 551.882 559.642 551.658C559.25 551.425 558.816 551.308 558.34 551.308C557.864 551.308 557.43 551.42 557.038 551.644C556.646 551.868 556.333 552.195 556.1 552.624C555.866 553.053 555.75 553.557 555.75 554.136C555.75 554.724 555.866 555.237 556.1 555.676C556.333 556.105 556.646 556.437 557.038 556.67C557.43 556.894 557.864 557.006 558.34 557.006C558.816 557.006 559.25 556.894 559.642 556.67C560.043 556.437 560.36 556.105 560.594 555.676C560.827 555.237 560.944 554.729 560.944 554.15ZM571.385 553.87C571.385 554.113 571.371 554.369 571.343 554.64H565.211C565.257 555.396 565.514 555.989 565.981 556.418C566.457 556.838 567.031 557.048 567.703 557.048C568.253 557.048 568.711 556.922 569.075 556.67C569.448 556.409 569.709 556.063 569.859 555.634H571.231C571.025 556.371 570.615 556.973 569.999 557.44C569.383 557.897 568.617 558.126 567.703 558.126C566.975 558.126 566.321 557.963 565.743 557.636C565.173 557.309 564.725 556.847 564.399 556.25C564.072 555.643 563.909 554.943 563.909 554.15C563.909 553.357 564.067 552.661 564.385 552.064C564.702 551.467 565.145 551.009 565.715 550.692C566.293 550.365 566.956 550.202 567.703 550.202C568.431 550.202 569.075 550.361 569.635 550.678C570.195 550.995 570.624 551.434 570.923 551.994C571.231 552.545 571.385 553.17 571.385 553.87ZM570.069 553.604C570.069 553.119 569.961 552.703 569.747 552.358C569.532 552.003 569.238 551.737 568.865 551.56C568.501 551.373 568.095 551.28 567.647 551.28C567.003 551.28 566.452 551.485 565.995 551.896C565.547 552.307 565.29 552.876 565.225 553.604H570.069ZM578.073 551.742C578.325 551.303 578.698 550.939 579.193 550.65C579.697 550.351 580.28 550.202 580.943 550.202C581.624 550.202 582.24 550.365 582.791 550.692C583.351 551.019 583.789 551.481 584.107 552.078C584.424 552.666 584.583 553.352 584.583 554.136C584.583 554.911 584.424 555.601 584.107 556.208C583.789 556.815 583.351 557.286 582.791 557.622C582.24 557.958 581.624 558.126 580.943 558.126C580.289 558.126 579.711 557.981 579.207 557.692C578.712 557.393 578.334 557.025 578.073 556.586V561.64H576.799V550.328H578.073V551.742ZM583.281 554.136C583.281 553.557 583.164 553.053 582.931 552.624C582.697 552.195 582.38 551.868 581.979 551.644C581.587 551.42 581.153 551.308 580.677 551.308C580.21 551.308 579.776 551.425 579.375 551.658C578.983 551.882 578.665 552.213 578.423 552.652C578.189 553.081 578.073 553.581 578.073 554.15C578.073 554.729 578.189 555.237 578.423 555.676C578.665 556.105 578.983 556.437 579.375 556.67C579.776 556.894 580.21 557.006 580.677 557.006C581.153 557.006 581.587 556.894 581.979 556.67C582.38 556.437 582.697 556.105 582.931 555.676C583.164 555.237 583.281 554.724 583.281 554.136ZM585.784 554.136C585.784 553.352 585.942 552.666 586.26 552.078C586.577 551.481 587.011 551.019 587.562 550.692C588.122 550.365 588.742 550.202 589.424 550.202C590.096 550.202 590.679 550.347 591.174 550.636C591.668 550.925 592.037 551.289 592.28 551.728V550.328H593.568V558H592.28V556.572C592.028 557.02 591.65 557.393 591.146 557.692C590.651 557.981 590.072 558.126 589.41 558.126C588.728 558.126 588.112 557.958 587.562 557.622C587.011 557.286 586.577 556.815 586.26 556.208C585.942 555.601 585.784 554.911 585.784 554.136ZM592.28 554.15C592.28 553.571 592.163 553.067 591.93 552.638C591.696 552.209 591.379 551.882 590.978 551.658C590.586 551.425 590.152 551.308 589.676 551.308C589.2 551.308 588.766 551.42 588.374 551.644C587.982 551.868 587.669 552.195 587.436 552.624C587.202 553.053 587.086 553.557 587.086 554.136C587.086 554.724 587.202 555.237 587.436 555.676C587.669 556.105 587.982 556.437 588.374 556.67C588.766 556.894 589.2 557.006 589.676 557.006C590.152 557.006 590.586 556.894 590.978 556.67C591.379 556.437 591.696 556.105 591.93 555.676C592.163 555.237 592.28 554.729 592.28 554.15ZM598.437 558.126C597.849 558.126 597.321 558.028 596.855 557.832C596.388 557.627 596.019 557.347 595.749 556.992C595.478 556.628 595.329 556.213 595.301 555.746H596.617C596.654 556.129 596.831 556.441 597.149 556.684C597.475 556.927 597.9 557.048 598.423 557.048C598.908 557.048 599.291 556.941 599.571 556.726C599.851 556.511 599.991 556.241 599.991 555.914C599.991 555.578 599.841 555.331 599.543 555.172C599.244 555.004 598.782 554.841 598.157 554.682C597.587 554.533 597.121 554.383 596.757 554.234C596.402 554.075 596.094 553.847 595.833 553.548C595.581 553.24 595.455 552.839 595.455 552.344C595.455 551.952 595.571 551.593 595.805 551.266C596.038 550.939 596.369 550.683 596.799 550.496C597.228 550.3 597.718 550.202 598.269 550.202C599.118 550.202 599.804 550.417 600.327 550.846C600.849 551.275 601.129 551.863 601.167 552.61H599.893C599.865 552.209 599.701 551.887 599.403 551.644C599.113 551.401 598.721 551.28 598.227 551.28C597.769 551.28 597.405 551.378 597.135 551.574C596.864 551.77 596.729 552.027 596.729 552.344C596.729 552.596 596.808 552.806 596.967 552.974C597.135 553.133 597.34 553.263 597.583 553.366C597.835 553.459 598.18 553.567 598.619 553.688C599.169 553.837 599.617 553.987 599.963 554.136C600.308 554.276 600.602 554.491 600.845 554.78C601.097 555.069 601.227 555.447 601.237 555.914C601.237 556.334 601.12 556.712 600.887 557.048C600.653 557.384 600.322 557.65 599.893 557.846C599.473 558.033 598.987 558.126 598.437 558.126ZM605.751 558.126C605.163 558.126 604.636 558.028 604.169 557.832C603.702 557.627 603.334 557.347 603.063 556.992C602.792 556.628 602.643 556.213 602.615 555.746H603.931C603.968 556.129 604.146 556.441 604.463 556.684C604.79 556.927 605.214 557.048 605.737 557.048C606.222 557.048 606.605 556.941 606.885 556.726C607.165 556.511 607.305 556.241 607.305 555.914C607.305 555.578 607.156 555.331 606.857 555.172C606.558 555.004 606.096 554.841 605.471 554.682C604.902 554.533 604.435 554.383 604.071 554.234C603.716 554.075 603.408 553.847 603.147 553.548C602.895 553.24 602.769 552.839 602.769 552.344C602.769 551.952 602.886 551.593 603.119 551.266C603.352 550.939 603.684 550.683 604.113 550.496C604.542 550.3 605.032 550.202 605.583 550.202C606.432 550.202 607.118 550.417 607.641 550.846C608.164 551.275 608.444 551.863 608.481 552.61H607.207C607.179 552.209 607.016 551.887 606.717 551.644C606.428 551.401 606.036 551.28 605.541 551.28C605.084 551.28 604.72 551.378 604.449 551.574C604.178 551.77 604.043 552.027 604.043 552.344C604.043 552.596 604.122 552.806 604.281 552.974C604.449 553.133 604.654 553.263 604.897 553.366C605.149 553.459 605.494 553.567 605.933 553.688C606.484 553.837 606.932 553.987 607.277 554.136C607.622 554.276 607.916 554.491 608.159 554.78C608.411 555.069 608.542 555.447 608.551 555.914C608.551 556.334 608.434 556.712 608.201 557.048C607.968 557.384 607.636 557.65 607.207 557.846C606.787 558.033 606.302 558.126 605.751 558.126ZM617.349 553.87C617.349 554.113 617.335 554.369 617.307 554.64H611.175C611.222 555.396 611.479 555.989 611.945 556.418C612.421 556.838 612.995 557.048 613.667 557.048C614.218 557.048 614.675 556.922 615.039 556.67C615.413 556.409 615.674 556.063 615.823 555.634H617.195C616.99 556.371 616.579 556.973 615.963 557.44C615.347 557.897 614.582 558.126 613.667 558.126C612.939 558.126 612.286 557.963 611.707 557.636C611.138 557.309 610.69 556.847 610.363 556.25C610.037 555.643 609.873 554.943 609.873 554.15C609.873 553.357 610.032 552.661 610.349 552.064C610.667 551.467 611.11 551.009 611.679 550.692C612.258 550.365 612.921 550.202 613.667 550.202C614.395 550.202 615.039 550.361 615.599 550.678C616.159 550.995 616.589 551.434 616.887 551.994C617.195 552.545 617.349 553.17 617.349 553.87ZM616.033 553.604C616.033 553.119 615.926 552.703 615.711 552.358C615.497 552.003 615.203 551.737 614.829 551.56C614.465 551.373 614.059 551.28 613.611 551.28C612.967 551.28 612.417 551.485 611.959 551.896C611.511 552.307 611.255 552.876 611.189 553.604H616.033Z" fill="#DADADC"/>
<rect x="500" y="600" width="280" height="45" rx="6" fill="#106BFF"/>
<path d="M612.672 627.098C612.028 627.098 611.449 626.986 610.936 626.762C610.432 626.529 610.035 626.211 609.746 625.81C609.457 625.399 609.307 624.928 609.298 624.396H610.656C610.703 624.853 610.889 625.241 611.216 625.558C611.552 625.866 612.037 626.02 612.672 626.02C613.279 626.02 613.755 625.871 614.1 625.572C614.455 625.264 614.632 624.872 614.632 624.396C614.632 624.023 614.529 623.719 614.324 623.486C614.119 623.253 613.862 623.075 613.554 622.954C613.246 622.833 612.831 622.702 612.308 622.562C611.664 622.394 611.146 622.226 610.754 622.058C610.371 621.89 610.04 621.629 609.76 621.274C609.489 620.91 609.354 620.425 609.354 619.818C609.354 619.286 609.489 618.815 609.76 618.404C610.031 617.993 610.409 617.676 610.894 617.452C611.389 617.228 611.953 617.116 612.588 617.116C613.503 617.116 614.249 617.345 614.828 617.802C615.416 618.259 615.747 618.866 615.822 619.622H614.422C614.375 619.249 614.179 618.922 613.834 618.642C613.489 618.353 613.031 618.208 612.462 618.208C611.93 618.208 611.496 618.348 611.16 618.628C610.824 618.899 610.656 619.281 610.656 619.776C610.656 620.131 610.754 620.42 610.95 620.644C611.155 620.868 611.403 621.041 611.692 621.162C611.991 621.274 612.406 621.405 612.938 621.554C613.582 621.731 614.1 621.909 614.492 622.086C614.884 622.254 615.22 622.52 615.5 622.884C615.78 623.239 615.92 623.724 615.92 624.34C615.92 624.816 615.794 625.264 615.542 625.684C615.29 626.104 614.917 626.445 614.422 626.706C613.927 626.967 613.344 627.098 612.672 627.098ZM617.991 617.242H619.405L618.061 620.42H617.165L617.991 617.242ZM621.515 618.082C621.273 618.082 621.067 617.998 620.899 617.83C620.731 617.662 620.647 617.457 620.647 617.214C620.647 616.971 620.731 616.766 620.899 616.598C621.067 616.43 621.273 616.346 621.515 616.346C621.749 616.346 621.945 616.43 622.103 616.598C622.271 616.766 622.355 616.971 622.355 617.214C622.355 617.457 622.271 617.662 622.103 617.83C621.945 617.998 621.749 618.082 621.515 618.082ZM622.131 619.328V627H620.857V619.328H622.131ZM628.041 619.188C628.974 619.188 629.73 619.473 630.309 620.042C630.887 620.602 631.177 621.414 631.177 622.478V627H629.917V622.66C629.917 621.895 629.725 621.311 629.343 620.91C628.96 620.499 628.437 620.294 627.775 620.294C627.103 620.294 626.566 620.504 626.165 620.924C625.773 621.344 625.577 621.955 625.577 622.758V627H624.303V619.328H625.577V620.42C625.829 620.028 626.169 619.725 626.599 619.51C627.037 619.295 627.518 619.188 628.041 619.188ZM635.974 627.126C635.386 627.126 634.858 627.028 634.392 626.832C633.925 626.627 633.556 626.347 633.286 625.992C633.015 625.628 632.866 625.213 632.838 624.746H634.154C634.191 625.129 634.368 625.441 634.686 625.684C635.012 625.927 635.437 626.048 635.96 626.048C636.445 626.048 636.828 625.941 637.108 625.726C637.388 625.511 637.528 625.241 637.528 624.914C637.528 624.578 637.378 624.331 637.08 624.172C636.781 624.004 636.319 623.841 635.694 623.682C635.124 623.533 634.658 623.383 634.294 623.234C633.939 623.075 633.631 622.847 633.37 622.548C633.118 622.24 632.992 621.839 632.992 621.344C632.992 620.952 633.108 620.593 633.342 620.266C633.575 619.939 633.906 619.683 634.336 619.496C634.765 619.3 635.255 619.202 635.806 619.202C636.655 619.202 637.341 619.417 637.864 619.846C638.386 620.275 638.666 620.863 638.704 621.61H637.43C637.402 621.209 637.238 620.887 636.94 620.644C636.65 620.401 636.258 620.28 635.764 620.28C635.306 620.28 634.942 620.378 634.672 620.574C634.401 620.77 634.266 621.027 634.266 621.344C634.266 621.596 634.345 621.806 634.504 621.974C634.672 622.133 634.877 622.263 635.12 622.366C635.372 622.459 635.717 622.567 636.156 622.688C636.706 622.837 637.154 622.987 637.5 623.136C637.845 623.276 638.139 623.491 638.382 623.78C638.634 624.069 638.764 624.447 638.774 624.914C638.774 625.334 638.657 625.712 638.424 626.048C638.19 626.384 637.859 626.65 637.43 626.846C637.01 627.033 636.524 627.126 635.974 627.126ZM640.096 623.15C640.096 622.357 640.255 621.666 640.572 621.078C640.889 620.481 641.328 620.019 641.888 619.692C642.457 619.365 643.106 619.202 643.834 619.202C644.777 619.202 645.551 619.431 646.158 619.888C646.774 620.345 647.18 620.98 647.376 621.792H646.004C645.873 621.325 645.617 620.957 645.234 620.686C644.861 620.415 644.394 620.28 643.834 620.28C643.106 620.28 642.518 620.532 642.07 621.036C641.622 621.531 641.398 622.235 641.398 623.15C641.398 624.074 641.622 624.788 642.07 625.292C642.518 625.796 643.106 626.048 643.834 626.048C644.394 626.048 644.861 625.917 645.234 625.656C645.607 625.395 645.864 625.021 646.004 624.536H647.376C647.171 625.32 646.76 625.95 646.144 626.426C645.528 626.893 644.758 627.126 643.834 627.126C643.106 627.126 642.457 626.963 641.888 626.636C641.328 626.309 640.889 625.847 640.572 625.25C640.255 624.653 640.096 623.953 640.096 623.15ZM650.35 620.574C650.574 620.135 650.891 619.795 651.302 619.552C651.722 619.309 652.231 619.188 652.828 619.188V620.504H652.492C651.064 620.504 650.35 621.279 650.35 622.828V627H649.076V619.328H650.35V620.574ZM654.957 618.082C654.714 618.082 654.509 617.998 654.341 617.83C654.173 617.662 654.089 617.457 654.089 617.214C654.089 616.971 654.173 616.766 654.341 616.598C654.509 616.43 654.714 616.346 654.957 616.346C655.19 616.346 655.386 616.43 655.545 616.598C655.713 616.766 655.797 616.971 655.797 617.214C655.797 617.457 655.713 617.662 655.545 617.83C655.386 617.998 655.19 618.082 654.957 618.082ZM655.573 619.328V627H654.299V619.328H655.573ZM659.018 620.574C659.242 620.135 659.559 619.795 659.97 619.552C660.39 619.309 660.899 619.188 661.496 619.188V620.504H661.16C659.732 620.504 659.018 621.279 659.018 622.828V627H657.744V619.328H659.018V620.574ZM669.967 622.87C669.967 623.113 669.953 623.369 669.925 623.64H663.793C663.839 624.396 664.096 624.989 664.563 625.418C665.039 625.838 665.613 626.048 666.285 626.048C666.835 626.048 667.293 625.922 667.657 625.67C668.03 625.409 668.291 625.063 668.441 624.634H669.813C669.607 625.371 669.197 625.973 668.581 626.44C667.965 626.897 667.199 627.126 666.285 627.126C665.557 627.126 664.903 626.963 664.325 626.636C663.755 626.309 663.307 625.847 662.981 625.25C662.654 624.643 662.491 623.943 662.491 623.15C662.491 622.357 662.649 621.661 662.967 621.064C663.284 620.467 663.727 620.009 664.297 619.692C664.875 619.365 665.538 619.202 666.285 619.202C667.013 619.202 667.657 619.361 668.217 619.678C668.777 619.995 669.206 620.434 669.505 620.994C669.813 621.545 669.967 622.17 669.967 622.87ZM668.651 622.604C668.651 622.119 668.543 621.703 668.329 621.358C668.114 621.003 667.82 620.737 667.447 620.56C667.083 620.373 666.677 620.28 666.229 620.28C665.585 620.28 665.034 620.485 664.577 620.896C664.129 621.307 663.872 621.876 663.807 622.604H668.651Z" fill="#FAFAFC"/>
<g clip-path="url(#clip1_93_778)">
<path d="M685.716 670.084C684.94 670.084 684.232 669.904 683.592 669.544C682.952 669.176 682.444 668.668 682.068 668.02C681.7 667.364 681.516 666.628 681.516 665.812C681.516 664.996 681.7 664.264 682.068 663.616C682.444 662.96 682.952 662.452 683.592 662.092C684.232 661.724 684.94 661.54 685.716 661.54C686.5 661.54 687.212 661.724 687.852 662.092C688.492 662.452 688.996 662.956 689.364 663.604C689.732 664.252 689.916 664.988 689.916 665.812C689.916 666.636 689.732 667.372 689.364 668.02C688.996 668.668 688.492 669.176 687.852 669.544C687.212 669.904 686.5 670.084 685.716 670.084ZM685.716 669.136C686.3 669.136 686.824 669 687.288 668.728C687.76 668.456 688.128 668.068 688.392 667.564C688.664 667.06 688.8 666.476 688.8 665.812C688.8 665.14 688.664 664.556 688.392 664.06C688.128 663.556 687.764 663.168 687.3 662.896C686.836 662.624 686.308 662.488 685.716 662.488C685.124 662.488 684.596 662.624 684.132 662.896C683.668 663.168 683.3 663.556 683.028 664.06C682.764 664.556 682.632 665.14 682.632 665.812C682.632 666.476 682.764 667.06 683.028 667.564C683.3 668.068 683.668 668.456 684.132 668.728C684.604 669 685.132 669.136 685.716 669.136ZM697.19 663.424V670H696.098V669.028C695.89 669.364 695.598 669.628 695.222 669.82C694.854 670.004 694.446 670.096 693.998 670.096C693.486 670.096 693.026 669.992 692.618 669.784C692.21 669.568 691.886 669.248 691.646 668.824C691.414 668.4 691.298 667.884 691.298 667.276V663.424H692.378V667.132C692.378 667.78 692.542 668.28 692.87 668.632C693.198 668.976 693.646 669.148 694.214 669.148C694.798 669.148 695.258 668.968 695.594 668.608C695.93 668.248 696.098 667.724 696.098 667.036V663.424H697.19ZM704.561 670.108C704.057 670.108 703.605 670.024 703.205 669.856C702.805 669.68 702.489 669.44 702.257 669.136C702.025 668.824 701.897 668.468 701.873 668.068H703.001C703.033 668.396 703.185 668.664 703.457 668.872C703.737 669.08 704.101 669.184 704.549 669.184C704.965 669.184 705.293 669.092 705.533 668.908C705.773 668.724 705.893 668.492 705.893 668.212C705.893 667.924 705.765 667.712 705.509 667.576C705.253 667.432 704.857 667.292 704.321 667.156C703.833 667.028 703.433 666.9 703.121 666.772C702.817 666.636 702.553 666.44 702.329 666.184C702.113 665.92 702.005 665.576 702.005 665.152C702.005 664.816 702.105 664.508 702.305 664.228C702.505 663.948 702.789 663.728 703.157 663.568C703.525 663.4 703.945 663.316 704.417 663.316C705.145 663.316 705.733 663.5 706.181 663.868C706.629 664.236 706.869 664.74 706.901 665.38H705.809C705.785 665.036 705.645 664.76 705.389 664.552C705.141 664.344 704.805 664.24 704.381 664.24C703.989 664.24 703.677 664.324 703.445 664.492C703.213 664.66 703.097 664.88 703.097 665.152C703.097 665.368 703.165 665.548 703.301 665.692C703.445 665.828 703.621 665.94 703.829 666.028C704.045 666.108 704.341 666.2 704.717 666.304C705.189 666.432 705.573 666.56 705.869 666.688C706.165 666.808 706.417 666.992 706.625 667.24C706.841 667.488 706.953 667.812 706.961 668.212C706.961 668.572 706.861 668.896 706.661 669.184C706.461 669.472 706.177 669.7 705.809 669.868C705.449 670.028 705.033 670.108 704.561 670.108ZM714.502 666.46C714.502 666.668 714.49 666.888 714.466 667.12H709.21C709.25 667.768 709.47 668.276 709.87 668.644C710.278 669.004 710.77 669.184 711.346 669.184C711.818 669.184 712.21 669.076 712.522 668.86C712.842 668.636 713.066 668.34 713.194 667.972H714.37C714.194 668.604 713.842 669.12 713.314 669.52C712.786 669.912 712.13 670.108 711.346 670.108C710.722 670.108 710.162 669.968 709.666 669.688C709.178 669.408 708.794 669.012 708.514 668.5C708.234 667.98 708.094 667.38 708.094 666.7C708.094 666.02 708.23 665.424 708.502 664.912C708.774 664.4 709.154 664.008 709.642 663.736C710.138 663.456 710.706 663.316 711.346 663.316C711.97 663.316 712.522 663.452 713.002 663.724C713.482 663.996 713.85 664.372 714.106 664.852C714.37 665.324 714.502 665.86 714.502 666.46ZM713.374 666.232C713.374 665.816 713.282 665.46 713.098 665.164C712.914 664.86 712.662 664.632 712.342 664.48C712.03 664.32 711.682 664.24 711.298 664.24C710.746 664.24 710.274 664.416 709.882 664.768C709.498 665.12 709.278 665.608 709.222 666.232H713.374ZM718.735 666.7C718.735 666.02 718.871 665.428 719.143 664.924C719.415 664.412 719.791 664.016 720.271 663.736C720.759 663.456 721.315 663.316 721.939 663.316C722.747 663.316 723.411 663.512 723.931 663.904C724.459 664.296 724.807 664.84 724.975 665.536H723.799C723.687 665.136 723.467 664.82 723.139 664.588C722.819 664.356 722.419 664.24 721.939 664.24C721.315 664.24 720.811 664.456 720.427 664.888C720.043 665.312 719.851 665.916 719.851 666.7C719.851 667.492 720.043 668.104 720.427 668.536C720.811 668.968 721.315 669.184 721.939 669.184C722.419 669.184 722.819 669.072 723.139 668.848C723.459 668.624 723.679 668.304 723.799 667.888H724.975C724.799 668.56 724.447 669.1 723.919 669.508C723.391 669.908 722.731 670.108 721.939 670.108C721.315 670.108 720.759 669.968 720.271 669.688C719.791 669.408 719.415 669.012 719.143 668.5C718.871 667.988 718.735 667.388 718.735 666.7ZM729.3 670.108C728.684 670.108 728.124 669.968 727.62 669.688C727.124 669.408 726.732 669.012 726.444 668.5C726.164 667.98 726.024 667.38 726.024 666.7C726.024 666.028 726.168 665.436 726.456 664.924C726.752 664.404 727.152 664.008 727.656 663.736C728.16 663.456 728.724 663.316 729.348 663.316C729.972 663.316 730.536 663.456 731.04 663.736C731.544 664.008 731.94 664.4 732.228 664.912C732.524 665.424 732.672 666.02 732.672 666.7C732.672 667.38 732.52 667.98 732.216 668.5C731.92 669.012 731.516 669.408 731.004 669.688C730.492 669.968 729.924 670.108 729.3 670.108ZM729.3 669.148C729.692 669.148 730.06 669.056 730.404 668.872C730.748 668.688 731.024 668.412 731.232 668.044C731.448 667.676 731.556 667.228 731.556 666.7C731.556 666.172 731.452 665.724 731.244 665.356C731.036 664.988 730.764 664.716 730.428 664.54C730.092 664.356 729.728 664.264 729.336 664.264C728.936 664.264 728.568 664.356 728.232 664.54C727.904 664.716 727.64 664.988 727.44 665.356C727.24 665.724 727.14 666.172 727.14 666.7C727.14 667.236 727.236 667.688 727.428 668.056C727.628 668.424 727.892 668.7 728.22 668.884C728.548 669.06 728.908 669.148 729.3 669.148ZM737.312 663.304C738.112 663.304 738.76 663.548 739.256 664.036C739.752 664.516 740 665.212 740 666.124V670H738.92V666.28C738.92 665.624 738.756 665.124 738.428 664.78C738.1 664.428 737.652 664.252 737.084 664.252C736.508 664.252 736.048 664.432 735.704 664.792C735.368 665.152 735.2 665.676 735.2 666.364V670H734.108V663.424H735.2V664.36C735.416 664.024 735.708 663.764 736.076 663.58C736.452 663.396 736.864 663.304 737.312 663.304ZM744.987 663.304C745.787 663.304 746.435 663.548 746.931 664.036C747.427 664.516 747.675 665.212 747.675 666.124V670H746.595V666.28C746.595 665.624 746.431 665.124 746.103 664.78C745.775 664.428 745.327 664.252 744.759 664.252C744.183 664.252 743.723 664.432 743.379 664.792C743.043 665.152 742.875 665.676 742.875 666.364V670H741.783V663.424H742.875V664.36C743.091 664.024 743.383 663.764 743.751 663.58C744.127 663.396 744.539 663.304 744.987 663.304ZM755.459 666.46C755.459 666.668 755.447 666.888 755.423 667.12H750.167C750.207 667.768 750.427 668.276 750.827 668.644C751.235 669.004 751.727 669.184 752.303 669.184C752.775 669.184 753.167 669.076 753.479 668.86C753.799 668.636 754.023 668.34 754.151 667.972H755.327C755.151 668.604 754.799 669.12 754.271 669.52C753.743 669.912 753.087 670.108 752.303 670.108C751.679 670.108 751.119 669.968 750.623 669.688C750.135 669.408 749.751 669.012 749.471 668.5C749.191 667.98 749.051 667.38 749.051 666.7C749.051 666.02 749.187 665.424 749.459 664.912C749.731 664.4 750.111 664.008 750.599 663.736C751.095 663.456 751.663 663.316 752.303 663.316C752.927 663.316 753.479 663.452 753.959 663.724C754.439 663.996 754.807 664.372 755.063 664.852C755.327 665.324 755.459 665.86 755.459 666.46ZM754.331 666.232C754.331 665.816 754.239 665.46 754.055 665.164C753.871 664.86 753.619 664.632 753.299 664.48C752.987 664.32 752.639 664.24 752.255 664.24C751.703 664.24 751.231 664.416 750.839 664.768C750.455 665.12 750.235 665.608 750.179 666.232H754.331ZM756.493 666.7C756.493 666.02 756.629 665.428 756.901 664.924C757.173 664.412 757.549 664.016 758.029 663.736C758.517 663.456 759.073 663.316 759.697 663.316C760.505 663.316 761.169 663.512 761.689 663.904C762.217 664.296 762.565 664.84 762.733 665.536H761.557C761.445 665.136 761.225 664.82 760.897 664.588C760.577 664.356 760.177 664.24 759.697 664.24C759.073 664.24 758.569 664.456 758.185 664.888C757.801 665.312 757.609 665.916 757.609 666.7C757.609 667.492 757.801 668.104 758.185 668.536C758.569 668.968 759.073 669.184 759.697 669.184C760.177 669.184 760.577 669.072 760.897 668.848C761.217 668.624 761.437 668.304 761.557 667.888H762.733C762.557 668.56 762.205 669.1 761.677 669.508C761.149 669.908 760.489 670.108 759.697 670.108C759.073 670.108 758.517 669.968 758.029 669.688C757.549 669.408 757.173 669.012 756.901 668.5C756.629 667.988 756.493 667.388 756.493 666.7ZM765.522 664.324V668.2C765.522 668.52 765.59 668.748 765.726 668.884C765.862 669.012 766.098 669.076 766.434 669.076H767.238V670H766.254C765.646 670 765.19 669.86 764.886 669.58C764.582 669.3 764.43 668.84 764.43 668.2V664.324H763.578V663.424H764.43V661.768H765.522V663.424H767.238V664.324H765.522ZM774.561 666.46C774.561 666.668 774.549 666.888 774.525 667.12H769.269C769.309 667.768 769.529 668.276 769.929 668.644C770.337 669.004 770.829 669.184 771.405 669.184C771.877 669.184 772.269 669.076 772.581 668.86C772.901 668.636 773.125 668.34 773.253 667.972H774.429C774.253 668.604 773.901 669.12 773.373 669.52C772.845 669.912 772.189 670.108 771.405 670.108C770.781 670.108 770.221 669.968 769.725 669.688C769.237 669.408 768.853 669.012 768.573 668.5C768.293 667.98 768.153 667.38 768.153 666.7C768.153 666.02 768.289 665.424 768.561 664.912C768.833 664.4 769.213 664.008 769.701 663.736C770.197 663.456 770.765 663.316 771.405 663.316C772.029 663.316 772.581 663.452 773.061 663.724C773.541 663.996 773.909 664.372 774.165 664.852C774.429 665.324 774.561 665.86 774.561 666.46ZM773.433 666.232C773.433 665.816 773.341 665.46 773.157 665.164C772.973 664.86 772.721 664.632 772.401 664.48C772.089 664.32 771.741 664.24 771.357 664.24C770.805 664.24 770.333 664.416 769.941 664.768C769.557 665.12 769.337 665.608 769.281 666.232H773.433ZM777.094 664.492C777.286 664.116 777.558 663.824 777.91 663.616C778.27 663.408 778.706 663.304 779.218 663.304V664.432H778.93C777.706 664.432 777.094 665.096 777.094 666.424V670H776.002V663.424H777.094V664.492Z" fill="#106BFF"/>
</g>
</g>
<ellipse cx="873.862" cy="263.883" rx="75.8621" ry="75.873" fill="#106BFF"/>
<ellipse cx="949.724" cy="197.873" rx="75.8621" ry="75.873" fill="#106BFF"/>
<ellipse cx="956.552" cy="285.127" rx="75.8621" ry="75.873" fill="#106BFF"/>
<ellipse cx="1027.1" cy="290.438" rx="56.8966" ry="56.9048" fill="#106BFF"/>
<ellipse cx="1046.07" cy="219.117" rx="68.2759" ry="68.2857" fill="#106BFF"/>
<ellipse cx="1089.31" cy="277.54" rx="60.6897" ry="60.6984" fill="#106BFF"/>
<g filter="url(#filter1_f_93_778)">
<circle cx="220" cy="650" r="150" fill="#FAFAFC" fill-opacity="0.5"/>
</g>
<rect width="1280" height="57" transform="translate(0 28)" fill="#0A0A0C" fill-opacity="0.05"/>
<rect x="128" y="34" width="400" height="45" rx="6" fill="#1A1A1C" fill-opacity="0.5"/>
<path d="M158.216 61L155.892 57.01H154.352V61H153.078V51.242H156.228C156.965 51.242 157.586 51.368 158.09 51.62C158.603 51.872 158.986 52.2127 159.238 52.642C159.49 53.0713 159.616 53.5613 159.616 54.112C159.616 54.784 159.42 55.3767 159.028 55.89C158.645 56.4033 158.067 56.744 157.292 56.912L159.742 61H158.216ZM154.352 55.988H156.228C156.919 55.988 157.437 55.82 157.782 55.484C158.127 55.1387 158.3 54.6813 158.3 54.112C158.3 53.5333 158.127 53.0853 157.782 52.768C157.446 52.4507 156.928 52.292 156.228 52.292H154.352V55.988ZM168.596 56.87C168.596 57.1127 168.582 57.3693 168.554 57.64H162.422C162.468 58.396 162.725 58.9887 163.192 59.418C163.668 59.838 164.242 60.048 164.914 60.048C165.464 60.048 165.922 59.922 166.286 59.67C166.659 59.4087 166.92 59.0633 167.07 58.634H168.442C168.236 59.3713 167.826 59.9733 167.21 60.44C166.594 60.8973 165.828 61.126 164.914 61.126C164.186 61.126 163.532 60.9627 162.954 60.636C162.384 60.3093 161.936 59.8473 161.61 59.25C161.283 58.6433 161.12 57.9433 161.12 57.15C161.12 56.3567 161.278 55.6613 161.596 55.064C161.913 54.4667 162.356 54.0093 162.926 53.692C163.504 53.3653 164.167 53.202 164.914 53.202C165.642 53.202 166.286 53.3607 166.846 53.678C167.406 53.9953 167.835 54.434 168.134 54.994C168.442 55.5447 168.596 56.17 168.596 56.87ZM167.28 56.604C167.28 56.1187 167.172 55.7033 166.958 55.358C166.743 55.0033 166.449 54.7373 166.076 54.56C165.712 54.3733 165.306 54.28 164.858 54.28C164.214 54.28 163.663 54.4853 163.206 54.896C162.758 55.3067 162.501 55.876 162.436 56.604H167.28ZM169.801 57.15C169.801 56.3567 169.96 55.666 170.277 55.078C170.595 54.4807 171.033 54.0187 171.593 53.692C172.163 53.3653 172.811 53.202 173.539 53.202C174.482 53.202 175.257 53.4307 175.863 53.888C176.479 54.3453 176.885 54.98 177.081 55.792H175.709C175.579 55.3253 175.322 54.9567 174.939 54.686C174.566 54.4153 174.099 54.28 173.539 54.28C172.811 54.28 172.223 54.532 171.775 55.036C171.327 55.5307 171.103 56.2353 171.103 57.15C171.103 58.074 171.327 58.788 171.775 59.292C172.223 59.796 172.811 60.048 173.539 60.048C174.099 60.048 174.566 59.9173 174.939 59.656C175.313 59.3947 175.569 59.0213 175.709 58.536H177.081C176.876 59.32 176.465 59.95 175.849 60.426C175.233 60.8927 174.463 61.126 173.539 61.126C172.811 61.126 172.163 60.9627 171.593 60.636C171.033 60.3093 170.595 59.8473 170.277 59.25C169.96 58.6527 169.801 57.9527 169.801 57.15ZM182.589 53.188C183.168 53.188 183.69 53.314 184.157 53.566C184.624 53.8087 184.988 54.1773 185.249 54.672C185.52 55.1667 185.655 55.7687 185.655 56.478V61H184.395V56.66C184.395 55.8947 184.204 55.3113 183.821 54.91C183.438 54.4993 182.916 54.294 182.253 54.294C181.581 54.294 181.044 54.504 180.643 54.924C180.251 55.344 180.055 55.9553 180.055 56.758V61H178.781V50.64H180.055V54.42C180.307 54.028 180.652 53.7247 181.091 53.51C181.539 53.2953 182.038 53.188 182.589 53.188ZM194.736 56.87C194.736 57.1127 194.722 57.3693 194.694 57.64H188.562C188.609 58.396 188.866 58.9887 189.332 59.418C189.808 59.838 190.382 60.048 191.054 60.048C191.605 60.048 192.062 59.922 192.426 59.67C192.8 59.4087 193.061 59.0633 193.21 58.634H194.582C194.377 59.3713 193.966 59.9733 193.35 60.44C192.734 60.8973 191.969 61.126 191.054 61.126C190.326 61.126 189.673 60.9627 189.094 60.636C188.525 60.3093 188.077 59.8473 187.75 59.25C187.424 58.6433 187.26 57.9433 187.26 57.15C187.26 56.3567 187.419 55.6613 187.736 55.064C188.054 54.4667 188.497 54.0093 189.066 53.692C189.645 53.3653 190.308 53.202 191.054 53.202C191.782 53.202 192.426 53.3607 192.986 53.678C193.546 53.9953 193.976 54.434 194.274 54.994C194.582 55.5447 194.736 56.17 194.736 56.87ZM193.42 56.604C193.42 56.1187 193.313 55.7033 193.098 55.358C192.884 55.0033 192.59 54.7373 192.216 54.56C191.852 54.3733 191.446 54.28 190.998 54.28C190.354 54.28 189.804 54.4853 189.346 54.896C188.898 55.3067 188.642 55.876 188.576 56.604H193.42ZM197.692 54.574C197.916 54.1353 198.233 53.7947 198.644 53.552C199.064 53.3093 199.573 53.188 200.17 53.188V54.504H199.834C198.406 54.504 197.692 55.2787 197.692 56.828V61H196.418V53.328H197.692V54.574ZM201.165 57.15C201.165 56.3567 201.323 55.666 201.641 55.078C201.958 54.4807 202.397 54.0187 202.957 53.692C203.526 53.3653 204.175 53.202 204.903 53.202C205.845 53.202 206.62 53.4307 207.227 53.888C207.843 54.3453 208.249 54.98 208.445 55.792H207.073C206.942 55.3253 206.685 54.9567 206.303 54.686C205.929 54.4153 205.463 54.28 204.903 54.28C204.175 54.28 203.587 54.532 203.139 55.036C202.691 55.5307 202.467 56.2353 202.467 57.15C202.467 58.074 202.691 58.788 203.139 59.292C203.587 59.796 204.175 60.048 204.903 60.048C205.463 60.048 205.929 59.9173 206.303 59.656C206.676 59.3947 206.933 59.0213 207.073 58.536H208.445C208.239 59.32 207.829 59.95 207.213 60.426C206.597 60.8927 205.827 61.126 204.903 61.126C204.175 61.126 203.526 60.9627 202.957 60.636C202.397 60.3093 201.958 59.8473 201.641 59.25C201.323 58.6527 201.165 57.9527 201.165 57.15ZM213.952 53.188C214.531 53.188 215.054 53.314 215.52 53.566C215.987 53.8087 216.351 54.1773 216.612 54.672C216.883 55.1667 217.018 55.7687 217.018 56.478V61H215.758V56.66C215.758 55.8947 215.567 55.3113 215.184 54.91C214.802 54.4993 214.279 54.294 213.616 54.294C212.944 54.294 212.408 54.504 212.006 54.924C211.614 55.344 211.418 55.9553 211.418 56.758V61H210.144V50.64H211.418V54.42C211.67 54.028 212.016 53.7247 212.454 53.51C212.902 53.2953 213.402 53.188 213.952 53.188ZM226.099 56.87C226.099 57.1127 226.085 57.3693 226.057 57.64H219.925C219.972 58.396 220.229 58.9887 220.695 59.418C221.171 59.838 221.745 60.048 222.417 60.048C222.968 60.048 223.425 59.922 223.789 59.67C224.163 59.4087 224.424 59.0633 224.573 58.634H225.945C225.74 59.3713 225.329 59.9733 224.713 60.44C224.097 60.8973 223.332 61.126 222.417 61.126C221.689 61.126 221.036 60.9627 220.457 60.636C219.888 60.3093 219.44 59.8473 219.113 59.25C218.787 58.6433 218.623 57.9433 218.623 57.15C218.623 56.3567 218.782 55.6613 219.099 55.064C219.417 54.4667 219.86 54.0093 220.429 53.692C221.008 53.3653 221.671 53.202 222.417 53.202C223.145 53.202 223.789 53.3607 224.349 53.678C224.909 53.9953 225.339 54.434 225.637 54.994C225.945 55.5447 226.099 56.17 226.099 56.87ZM224.783 56.604C224.783 56.1187 224.676 55.7033 224.461 55.358C224.247 55.0033 223.953 54.7373 223.579 54.56C223.215 54.3733 222.809 54.28 222.361 54.28C221.717 54.28 221.167 54.4853 220.709 54.896C220.261 55.3067 220.005 55.876 219.939 56.604H224.783ZM229.055 54.574C229.279 54.1353 229.596 53.7947 230.007 53.552C230.427 53.3093 230.936 53.188 231.533 53.188V54.504H231.197C229.769 54.504 229.055 55.2787 229.055 56.828V61H227.781V53.328H229.055V54.574Z" fill="#DADADC"/>
<path d="M502.911 63.5L498.011 58.6C497.622 58.9111 497.175 59.1574 496.669 59.3389C496.164 59.5204 495.626 59.6111 495.056 59.6111C493.643 59.6111 492.447 59.1218 491.468 58.1431C490.489 57.1644 490 55.9685 490 54.5556C490 53.1426 490.489 51.9468 491.468 50.9681C492.447 49.9894 493.643 49.5 495.056 49.5C496.469 49.5 497.664 49.9894 498.643 50.9681C499.622 51.9468 500.111 53.1426 500.111 54.5556C500.111 55.1259 500.02 55.6639 499.839 56.1694C499.657 56.675 499.411 57.1222 499.1 57.5111L504 62.4111L502.911 63.5ZM495.056 58.0556C496.028 58.0556 496.854 57.7153 497.535 57.0347C498.215 56.3542 498.556 55.5278 498.556 54.5556C498.556 53.5833 498.215 52.7569 497.535 52.0764C496.854 51.3958 496.028 51.0556 495.056 51.0556C494.083 51.0556 493.257 51.3958 492.576 52.0764C491.896 52.7569 491.556 53.5833 491.556 54.5556C491.556 55.5278 491.896 56.3542 492.576 57.0347C493.257 57.7153 494.083 58.0556 495.056 58.0556Z" fill="#FAFAFC"/>
<path d="M929.596 51.242V61H928.322V56.576H923.352V61H922.078V51.242H923.352V55.526H928.322V51.242H929.596ZM935.117 61.126C934.399 61.126 933.745 60.9627 933.157 60.636C932.579 60.3093 932.121 59.8473 931.785 59.25C931.459 58.6433 931.295 57.9433 931.295 57.15C931.295 56.366 931.463 55.6753 931.799 55.078C932.145 54.4713 932.611 54.0093 933.199 53.692C933.787 53.3653 934.445 53.202 935.173 53.202C935.901 53.202 936.559 53.3653 937.147 53.692C937.735 54.0093 938.197 54.4667 938.533 55.064C938.879 55.6613 939.051 56.3567 939.051 57.15C939.051 57.9433 938.874 58.6433 938.519 59.25C938.174 59.8473 937.703 60.3093 937.105 60.636C936.508 60.9627 935.845 61.126 935.117 61.126ZM935.117 60.006C935.575 60.006 936.004 59.8987 936.405 59.684C936.807 59.4693 937.129 59.1473 937.371 58.718C937.623 58.2887 937.749 57.766 937.749 57.15C937.749 56.534 937.628 56.0113 937.385 55.582C937.143 55.1527 936.825 54.8353 936.433 54.63C936.041 54.4153 935.617 54.308 935.159 54.308C934.693 54.308 934.263 54.4153 933.871 54.63C933.489 54.8353 933.181 55.1527 932.947 55.582C932.714 56.0113 932.597 56.534 932.597 57.15C932.597 57.7753 932.709 58.3027 932.933 58.732C933.167 59.1613 933.475 59.4833 933.857 59.698C934.24 59.9033 934.66 60.006 935.117 60.006ZM949.952 53.188C950.55 53.188 951.082 53.314 951.548 53.566C952.015 53.8087 952.384 54.1773 952.654 54.672C952.925 55.1667 953.06 55.7687 953.06 56.478V61H951.8V56.66C951.8 55.8947 951.609 55.3113 951.226 54.91C950.853 54.4993 950.344 54.294 949.7 54.294C949.038 54.294 948.51 54.5087 948.118 54.938C947.726 55.358 947.53 55.9693 947.53 56.772V61H946.27V56.66C946.27 55.8947 946.079 55.3113 945.696 54.91C945.323 54.4993 944.814 54.294 944.17 54.294C943.508 54.294 942.98 54.5087 942.588 54.938C942.196 55.358 942 55.9693 942 56.772V61H940.726V53.328H942V54.434C942.252 54.0327 942.588 53.7247 943.008 53.51C943.438 53.2953 943.909 53.188 944.422 53.188C945.066 53.188 945.636 53.3327 946.13 53.622C946.625 53.9113 946.994 54.336 947.236 54.896C947.451 54.3547 947.806 53.9347 948.3 53.636C948.795 53.3373 949.346 53.188 949.952 53.188ZM962.15 56.87C962.15 57.1127 962.136 57.3693 962.108 57.64H955.976C956.023 58.396 956.28 58.9887 956.746 59.418C957.222 59.838 957.796 60.048 958.468 60.048C959.019 60.048 959.476 59.922 959.84 59.67C960.214 59.4087 960.475 59.0633 960.624 58.634H961.996C961.791 59.3713 961.38 59.9733 960.764 60.44C960.148 60.8973 959.383 61.126 958.468 61.126C957.74 61.126 957.087 60.9627 956.508 60.636C955.939 60.3093 955.491 59.8473 955.164 59.25C954.838 58.6433 954.674 57.9433 954.674 57.15C954.674 56.3567 954.833 55.6613 955.15 55.064C955.468 54.4667 955.911 54.0093 956.48 53.692C957.059 53.3653 957.722 53.202 958.468 53.202C959.196 53.202 959.84 53.3607 960.4 53.678C960.96 53.9953 961.39 54.434 961.688 54.994C961.996 55.5447 962.15 56.17 962.15 56.87ZM960.834 56.604C960.834 56.1187 960.727 55.7033 960.512 55.358C960.298 55.0033 960.004 54.7373 959.63 54.56C959.266 54.3733 958.86 54.28 958.412 54.28C957.768 54.28 957.218 54.4853 956.76 54.896C956.312 55.3067 956.056 55.876 955.99 56.604H960.834Z" fill="#FAFAFC"/>
<path d="M1039.17 61.098C1038.53 61.098 1037.95 60.986 1037.44 60.762C1036.93 60.5287 1036.54 60.2113 1036.25 59.81C1035.96 59.3993 1035.81 58.928 1035.8 58.396H1037.16C1037.2 58.8533 1037.39 59.2407 1037.72 59.558C1038.05 59.866 1038.54 60.02 1039.17 60.02C1039.78 60.02 1040.25 59.8707 1040.6 59.572C1040.95 59.264 1041.13 58.872 1041.13 58.396C1041.13 58.0227 1041.03 57.7193 1040.82 57.486C1040.62 57.2527 1040.36 57.0753 1040.05 56.954C1039.75 56.8327 1039.33 56.702 1038.81 56.562C1038.16 56.394 1037.65 56.226 1037.25 56.058C1036.87 55.89 1036.54 55.6287 1036.26 55.274C1035.99 54.91 1035.85 54.4247 1035.85 53.818C1035.85 53.286 1035.99 52.8147 1036.26 52.404C1036.53 51.9933 1036.91 51.676 1037.39 51.452C1037.89 51.228 1038.45 51.116 1039.09 51.116C1040 51.116 1040.75 51.3447 1041.33 51.802C1041.92 52.2593 1042.25 52.866 1042.32 53.622H1040.92C1040.88 53.2487 1040.68 52.922 1040.33 52.642C1039.99 52.3527 1039.53 52.208 1038.96 52.208C1038.43 52.208 1038 52.348 1037.66 52.628C1037.32 52.8987 1037.16 53.2813 1037.16 53.776C1037.16 54.1307 1037.25 54.42 1037.45 54.644C1037.66 54.868 1037.9 55.0407 1038.19 55.162C1038.49 55.274 1038.91 55.4047 1039.44 55.554C1040.08 55.7313 1040.6 55.9087 1040.99 56.086C1041.38 56.254 1041.72 56.52 1042 56.884C1042.28 57.2387 1042.42 57.724 1042.42 58.34C1042.42 58.816 1042.29 59.264 1042.04 59.684C1041.79 60.104 1041.42 60.4447 1040.92 60.706C1040.43 60.9673 1039.84 61.098 1039.17 61.098ZM1051.29 56.87C1051.29 57.1127 1051.28 57.3693 1051.25 57.64H1045.12C1045.17 58.396 1045.42 58.9887 1045.89 59.418C1046.37 59.838 1046.94 60.048 1047.61 60.048C1048.16 60.048 1048.62 59.922 1048.98 59.67C1049.36 59.4087 1049.62 59.0633 1049.77 58.634H1051.14C1050.94 59.3713 1050.52 59.9733 1049.91 60.44C1049.29 60.8973 1048.53 61.126 1047.61 61.126C1046.88 61.126 1046.23 60.9627 1045.65 60.636C1045.08 60.3093 1044.64 59.8473 1044.31 59.25C1043.98 58.6433 1043.82 57.9433 1043.82 57.15C1043.82 56.3567 1043.98 55.6613 1044.29 55.064C1044.61 54.4667 1045.06 54.0093 1045.62 53.692C1046.2 53.3653 1046.87 53.202 1047.61 53.202C1048.34 53.202 1048.98 53.3607 1049.54 53.678C1050.1 53.9953 1050.53 54.434 1050.83 54.994C1051.14 55.5447 1051.29 56.17 1051.29 56.87ZM1049.98 56.604C1049.98 56.1187 1049.87 55.7033 1049.66 55.358C1049.44 55.0033 1049.15 54.7373 1048.77 54.56C1048.41 54.3733 1048 54.28 1047.56 54.28C1046.91 54.28 1046.36 54.4853 1045.9 54.896C1045.46 55.3067 1045.2 55.876 1045.13 56.604H1049.98ZM1056.23 57.15C1056.23 56.3567 1056.39 55.666 1056.71 55.078C1057.03 54.4807 1057.46 54.0187 1058.02 53.692C1058.59 53.3653 1059.24 53.202 1059.97 53.202C1060.91 53.202 1061.69 53.4307 1062.29 53.888C1062.91 54.3453 1063.32 54.98 1063.51 55.792H1062.14C1062.01 55.3253 1061.75 54.9567 1061.37 54.686C1061 54.4153 1060.53 54.28 1059.97 54.28C1059.24 54.28 1058.65 54.532 1058.21 55.036C1057.76 55.5307 1057.53 56.2353 1057.53 57.15C1057.53 58.074 1057.76 58.788 1058.21 59.292C1058.65 59.796 1059.24 60.048 1059.97 60.048C1060.53 60.048 1061 59.9173 1061.37 59.656C1061.74 59.3947 1062 59.0213 1062.14 58.536H1063.51C1063.31 59.32 1062.9 59.95 1062.28 60.426C1061.66 60.8927 1060.89 61.126 1059.97 61.126C1059.24 61.126 1058.59 60.9627 1058.02 60.636C1057.46 60.3093 1057.03 59.8473 1056.71 59.25C1056.39 58.6527 1056.23 57.9527 1056.23 57.15ZM1068.56 61.126C1067.84 61.126 1067.19 60.9627 1066.6 60.636C1066.02 60.3093 1065.56 59.8473 1065.23 59.25C1064.9 58.6433 1064.74 57.9433 1064.74 57.15C1064.74 56.366 1064.9 55.6753 1065.24 55.078C1065.59 54.4713 1066.05 54.0093 1066.64 53.692C1067.23 53.3653 1067.89 53.202 1068.61 53.202C1069.34 53.202 1070 53.3653 1070.59 53.692C1071.18 54.0093 1071.64 54.4667 1071.97 55.064C1072.32 55.6613 1072.49 56.3567 1072.49 57.15C1072.49 57.9433 1072.32 58.6433 1071.96 59.25C1071.62 59.8473 1071.14 60.3093 1070.55 60.636C1069.95 60.9627 1069.29 61.126 1068.56 61.126ZM1068.56 60.006C1069.02 60.006 1069.45 59.8987 1069.85 59.684C1070.25 59.4693 1070.57 59.1473 1070.81 58.718C1071.06 58.2887 1071.19 57.766 1071.19 57.15C1071.19 56.534 1071.07 56.0113 1070.83 55.582C1070.58 55.1527 1070.27 54.8353 1069.87 54.63C1069.48 54.4153 1069.06 54.308 1068.6 54.308C1068.13 54.308 1067.7 54.4153 1067.31 54.63C1066.93 54.8353 1066.62 55.1527 1066.39 55.582C1066.16 56.0113 1066.04 56.534 1066.04 57.15C1066.04 57.7753 1066.15 58.3027 1066.37 58.732C1066.61 59.1613 1066.92 59.4833 1067.3 59.698C1067.68 59.9033 1068.1 60.006 1068.56 60.006ZM1077.91 53.188C1078.84 53.188 1079.6 53.4727 1080.17 54.042C1080.75 54.602 1081.04 55.414 1081.04 56.478V61H1079.78V56.66C1079.78 55.8947 1079.59 55.3113 1079.21 54.91C1078.83 54.4993 1078.3 54.294 1077.64 54.294C1076.97 54.294 1076.43 54.504 1076.03 54.924C1075.64 55.344 1075.44 55.9553 1075.44 56.758V61H1074.17V53.328H1075.44V54.42C1075.69 54.028 1076.03 53.7247 1076.46 53.51C1076.9 53.2953 1077.38 53.188 1077.91 53.188ZM1086.86 53.188C1087.79 53.188 1088.55 53.4727 1089.13 54.042C1089.71 54.602 1090 55.414 1090 56.478V61H1088.74V56.66C1088.74 55.8947 1088.55 55.3113 1088.16 54.91C1087.78 54.4993 1087.26 54.294 1086.59 54.294C1085.92 54.294 1085.39 54.504 1084.98 54.924C1084.59 55.344 1084.4 55.9553 1084.4 56.758V61H1083.12V53.328H1084.4V54.42C1084.65 54.028 1084.99 53.7247 1085.42 53.51C1085.86 53.2953 1086.34 53.188 1086.86 53.188ZM1099.08 56.87C1099.08 57.1127 1099.06 57.3693 1099.04 57.64H1092.9C1092.95 58.396 1093.21 58.9887 1093.67 59.418C1094.15 59.838 1094.72 60.048 1095.4 60.048C1095.95 60.048 1096.4 59.922 1096.77 59.67C1097.14 59.4087 1097.4 59.0633 1097.55 58.634H1098.92C1098.72 59.3713 1098.31 59.9733 1097.69 60.44C1097.08 60.8973 1096.31 61.126 1095.4 61.126C1094.67 61.126 1094.01 60.9627 1093.44 60.636C1092.87 60.3093 1092.42 59.8473 1092.09 59.25C1091.77 58.6433 1091.6 57.9433 1091.6 57.15C1091.6 56.3567 1091.76 55.6613 1092.08 55.064C1092.4 54.4667 1092.84 54.0093 1093.41 53.692C1093.99 53.3653 1094.65 53.202 1095.4 53.202C1096.12 53.202 1096.77 53.3607 1097.33 53.678C1097.89 53.9953 1098.32 54.434 1098.62 54.994C1098.92 55.5447 1099.08 56.17 1099.08 56.87ZM1097.76 56.604C1097.76 56.1187 1097.65 55.7033 1097.44 55.358C1097.23 55.0033 1096.93 54.7373 1096.56 54.56C1096.19 54.3733 1095.79 54.28 1095.34 54.28C1094.7 54.28 1094.15 54.4853 1093.69 54.896C1093.24 55.3067 1092.98 55.876 1092.92 56.604H1097.76ZM1100.28 57.15C1100.28 56.3567 1100.44 55.666 1100.76 55.078C1101.08 54.4807 1101.52 54.0187 1102.08 53.692C1102.64 53.3653 1103.29 53.202 1104.02 53.202C1104.96 53.202 1105.74 53.4307 1106.35 53.888C1106.96 54.3453 1107.37 54.98 1107.56 55.792H1106.19C1106.06 55.3253 1105.8 54.9567 1105.42 54.686C1105.05 54.4153 1104.58 54.28 1104.02 54.28C1103.29 54.28 1102.71 54.532 1102.26 55.036C1101.81 55.5307 1101.59 56.2353 1101.59 57.15C1101.59 58.074 1101.81 58.788 1102.26 59.292C1102.71 59.796 1103.29 60.048 1104.02 60.048C1104.58 60.048 1105.05 59.9173 1105.42 59.656C1105.79 59.3947 1106.05 59.0213 1106.19 58.536H1107.56C1107.36 59.32 1106.95 59.95 1106.33 60.426C1105.72 60.8927 1104.95 61.126 1104.02 61.126C1103.29 61.126 1102.64 60.9627 1102.08 60.636C1101.52 60.3093 1101.08 59.8473 1100.76 59.25C1100.44 58.6527 1100.28 57.9527 1100.28 57.15ZM1110.82 54.378V58.9C1110.82 59.2733 1110.9 59.5393 1111.06 59.698C1111.21 59.8473 1111.49 59.922 1111.88 59.922H1112.82V61H1111.67C1110.96 61 1110.43 60.8367 1110.08 60.51C1109.72 60.1833 1109.54 59.6467 1109.54 58.9V54.378H1108.55V53.328H1109.54V51.396H1110.82V53.328H1112.82V54.378H1110.82ZM1121.36 56.87C1121.36 57.1127 1121.35 57.3693 1121.32 57.64H1115.19C1115.24 58.396 1115.49 58.9887 1115.96 59.418C1116.44 59.838 1117.01 60.048 1117.68 60.048C1118.23 60.048 1118.69 59.922 1119.05 59.67C1119.43 59.4087 1119.69 59.0633 1119.84 58.634H1121.21C1121 59.3713 1120.59 59.9733 1119.98 60.44C1119.36 60.8973 1118.6 61.126 1117.68 61.126C1116.95 61.126 1116.3 60.9627 1115.72 60.636C1115.15 60.3093 1114.7 59.8473 1114.38 59.25C1114.05 58.6433 1113.89 57.9433 1113.89 57.15C1113.89 56.3567 1114.05 55.6613 1114.36 55.064C1114.68 54.4667 1115.12 54.0093 1115.69 53.692C1116.27 53.3653 1116.93 53.202 1117.68 53.202C1118.41 53.202 1119.05 53.3607 1119.61 53.678C1120.17 53.9953 1120.6 54.434 1120.9 54.994C1121.21 55.5447 1121.36 56.17 1121.36 56.87ZM1120.05 56.604C1120.05 56.1187 1119.94 55.7033 1119.73 55.358C1119.51 55.0033 1119.22 54.7373 1118.84 54.56C1118.48 54.3733 1118.07 54.28 1117.63 54.28C1116.98 54.28 1116.43 54.4853 1115.97 54.896C1115.53 55.3067 1115.27 55.876 1115.2 56.604H1120.05ZM1124.32 54.574C1124.54 54.1353 1124.86 53.7947 1125.27 53.552C1125.69 53.3093 1126.2 53.188 1126.8 53.188V54.504H1126.46C1125.03 54.504 1124.32 55.2787 1124.32 56.828V61H1123.04V53.328H1124.32V54.574Z" fill="#FAFAFC"/>
<rect width="1280" height="28" fill="#0A0A0C"/>
</g>
<defs>
<filter id="filter0_d_93_778" x="388" y="114" width="504" height="689" filterUnits="userSpaceOnUse" color-interpolation-filters="sRGB">
<feFlood flood-opacity="0" result="BackgroundImageFix"/>
<feColorMatrix in="SourceAlpha" type="matrix" values="0 0 0 0 0 0 0 0 0 0 0 0 0 0 0 0 0 0 127 0" result="hardAlpha"/>
<feOffset dy="5"/>
<feGaussianBlur stdDeviation="12.5"/>
<feComposite in2="hardAlpha" operator="out"/>
<feColorMatrix type="matrix" values="0 0 0 0 0.0392157 0 0 0 0 0.0392157 0 0 0 0 0.0470588 0 0 0 0.5 0"/>
<feBlend mode="normal" in2="BackgroundImageFix" result="effect1_dropShadow_93_778"/>
<feBlend mode="normal" in="SourceGraphic" in2="effect1_dropShadow_93_778" result="shape"/>
</filter>
<filter id="filter1_f_93_778" x="-442" y="-12" width="1324" height="1324" filterUnits="userSpaceOnUse" color-interpolation-filters="sRGB">
<feFlood flood-opacity="0" result="BackgroundImageFix"/>
<feBlend mode="normal" in="SourceGraphic" in2="BackgroundImageFix" result="shape"/>
<feGaussianBlur stdDeviation="256" result="effect1_foregroundBlur_93_778"/>
</filter>
<clipPath id="clip0_93_778">
<rect width="1280" height="832" fill="white"/>
</clipPath>
<clipPath id="clip1_93_778">
<rect x="681" y="657" width="99" height="18" rx="6" fill="white"/>
</clipPath>
</defs>
</svg>
